<svg xmlns="http://www.w3.org/2000/svg" xml:space="preserve" display="flex" style="max-width:100%;height:auto" viewBox="0 0 1007 1007"><path d="M0 0h1007v1007H0z" fill="#fff"/><g fill="#000"><circle cx="3" cy="3" r="3" transform="translate(190 38) scale(3.26167)"/><circle cx="3" cy="3" r="3" transform="translate(209 38) scale(3.26167)"/><circle cx="3" cy="3" r="3" transform="translate(247 38) scale(3.26167)"/><circle cx="3" cy="3" r="3" transform="translate(266 38) scale(3.26167)"/><circle cx="3" cy="3" r="3" transform="translate(285 38) scale(3.26167)"/><circle cx="3" cy="3" r="3" transform="translate(304 38) scale(3.26167)"/><circle cx="3" cy="3" r="3" transform="translate(380 38) scale(3.26167)"/><circle cx="3" cy="3" r="3" transform="translate(399 38) scale(3.26167)"/><circle cx="3" cy="3" r="3" transform="translate(418 38) scale(3.26167)"/><circle cx="3" cy="3" r="3" transform="translate(456 38) scale(3.26167)"/><circle cx="3" cy="3" r="3" transform="translate(475 38) scale(3.26167)"/><circle cx="3" cy="3" r="3" transform="translate(494 38) scale(3.26167)"/><circle cx="3" cy="3" r="3" transform="translate(513 38) scale(3.26167)"/><circle cx="3" cy="3" r="3" transform="translate(532 38) scale(3.26167)"/><circle cx="3" cy="3" r="3" transform="translate(551 38) scale(3.26167)"/><circle cx="3" cy="3" r="3" transform="translate(589 38) scale(3.26167)"/><circle cx="3" cy="3" r="3" transform="translate(608 38) scale(3.26167)"/><circle cx="3" cy="3" r="3" transform="translate(722 38) scale(3.26167)"/><circle cx="3" cy="3" r="3" transform="translate(741 38) scale(3.26167)"/><circle cx="3" cy="3" r="3" transform="translate(798 38) scale(3.26167)"/><circle cx="3" cy="3" r="3" transform="translate(190 57) scale(3.26167)"/><circle cx="3" cy="3" r="3" transform="translate(209 57) scale(3.26167)"/><circle cx="3" cy="3" r="3" transform="translate(247 57) scale(3.26167)"/><circle cx="3" cy="3" r="3" transform="translate(418 57) scale(3.26167)"/><circle cx="3" cy="3" r="3" transform="translate(437 57) scale(3.26167)"/><circle cx="3" cy="3" r="3" transform="translate(456 57) scale(3.26167)"/><circle cx="3" cy="3" r="3" transform="translate(551 57) scale(3.26167)"/><circle cx="3" cy="3" r="3" transform="translate(589 57) scale(3.26167)"/><circle cx="3" cy="3" r="3" transform="translate(608 57) scale(3.26167)"/><circle cx="3" cy="3" r="3" transform="translate(646 57) scale(3.26167)"/><circle cx="3" cy="3" r="3" transform="translate(665 57) scale(3.26167)"/><circle cx="3" cy="3" r="3" transform="translate(684 57) scale(3.26167)"/><circle cx="3" cy="3" r="3" transform="translate(703 57) scale(3.26167)"/><circle cx="3" cy="3" r="3" transform="translate(722 57) scale(3.26167)"/><circle cx="3" cy="3" r="3" transform="translate(741 57) scale(3.26167)"/><circle cx="3" cy="3" r="3" transform="translate(760 57) scale(3.26167)"/><circle cx="3" cy="3" r="3" transform="translate(779 57) scale(3.26167)"/><circle cx="3" cy="3" r="3" transform="translate(798 57) scale(3.26167)"/><circle cx="3" cy="3" r="3" transform="translate(190 76) scale(3.26167)"/><circle cx="3" cy="3" r="3" transform="translate(228 76) scale(3.26167)"/><circle cx="3" cy="3" r="3" transform="translate(266 76) scale(3.26167)"/><circle cx="3" cy="3" r="3" transform="translate(304 76) scale(3.26167)"/><circle cx="3" cy="3" r="3" transform="translate(323 76) scale(3.26167)"/><circle cx="3" cy="3" r="3" transform="translate(342 76) scale(3.26167)"/><circle cx="3" cy="3" r="3" transform="translate(361 76) scale(3.26167)"/><circle cx="3" cy="3" r="3" transform="translate(380 76) scale(3.26167)"/><circle cx="3" cy="3" r="3" transform="translate(399 76) scale(3.26167)"/><circle cx="3" cy="3" r="3" transform="translate(418 76) scale(3.26167)"/><circle cx="3" cy="3" r="3" transform="translate(437 76) scale(3.26167)"/><circle cx="3" cy="3" r="3" transform="translate(494 76) scale(3.26167)"/><circle cx="3" cy="3" r="3" transform="translate(532 76) scale(3.26167)"/><circle cx="3" cy="3" r="3" transform="translate(551 76) scale(3.26167)"/><circle cx="3" cy="3" r="3" transform="translate(589 76) scale(3.26167)"/><circle cx="3" cy="3" r="3" transform="translate(608 76) scale(3.26167)"/><circle cx="3" cy="3" r="3" transform="translate(627 76) scale(3.26167)"/><circle cx="3" cy="3" r="3" transform="translate(703 76) scale(3.26167)"/><circle cx="3" cy="3" r="3" transform="translate(779 76) scale(3.26167)"/><circle cx="3" cy="3" r="3" transform="translate(798 76) scale(3.26167)"/><circle cx="3" cy="3" r="3" transform="translate(285 95) scale(3.26167)"/><circle cx="3" cy="3" r="3" transform="translate(304 95) scale(3.26167)"/><circle cx="3" cy="3" r="3" transform="translate(323 95) scale(3.26167)"/><circle cx="3" cy="3" r="3" transform="translate(361 95) scale(3.26167)"/><circle cx="3" cy="3" r="3" transform="translate(380 95) scale(3.26167)"/><circle cx="3" cy="3" r="3" transform="translate(399 95) scale(3.26167)"/><circle cx="3" cy="3" r="3" transform="translate(418 95) scale(3.26167)"/><circle cx="3" cy="3" r="3" transform="translate(437 95) scale(3.26167)"/><circle cx="3" cy="3" r="3" transform="translate(456 95) scale(3.26167)"/><circle cx="3" cy="3" r="3" transform="translate(475 95) scale(3.26167)"/><circle cx="3" cy="3" r="3" transform="translate(494 95) scale(3.26167)"/><circle cx="3" cy="3" r="3" transform="translate(608 95) scale(3.26167)"/><circle cx="3" cy="3" r="3" transform="translate(627 95) scale(3.26167)"/><circle cx="3" cy="3" r="3" transform="translate(646 95) scale(3.26167)"/><circle cx="3" cy="3" r="3" transform="translate(703 95) scale(3.26167)"/><circle cx="3" cy="3" r="3" transform="translate(722 95) scale(3.26167)"/><circle cx="3" cy="3" r="3" transform="translate(779 95) scale(3.26167)"/><circle cx="3" cy="3" r="3" transform="translate(209 114) scale(3.26167)"/><circle cx="3" cy="3" r="3" transform="translate(228 114) scale(3.26167)"/><circle cx="3" cy="3" r="3" transform="translate(266 114) scale(3.26167)"/><circle cx="3" cy="3" r="3" transform="translate(285 114) scale(3.26167)"/><circle cx="3" cy="3" r="3" transform="translate(304 114) scale(3.26167)"/><circle cx="3" cy="3" r="3" transform="translate(323 114) scale(3.26167)"/><circle cx="3" cy="3" r="3" transform="translate(380 114) scale(3.26167)"/><circle cx="3" cy="3" r="3" transform="translate(399 114) scale(3.26167)"/><circle cx="3" cy="3" r="3" transform="translate(437 114) scale(3.26167)"/><circle cx="3" cy="3" r="3" transform="translate(456 114) scale(3.26167)"/><circle cx="3" cy="3" r="3" transform="translate(475 114) scale(3.26167)"/><circle cx="3" cy="3" r="3" transform="translate(494 114) scale(3.26167)"/><circle cx="3" cy="3" r="3" transform="translate(513 114) scale(3.26167)"/><circle cx="3" cy="3" r="3" transform="translate(532 114) scale(3.26167)"/><circle cx="3" cy="3" r="3" transform="translate(589 114) scale(3.26167)"/><circle cx="3" cy="3" r="3" transform="translate(608 114) scale(3.26167)"/><circle cx="3" cy="3" r="3" transform="translate(646 114) scale(3.26167)"/><circle cx="3" cy="3" r="3" transform="translate(703 114) scale(3.26167)"/><circle cx="3" cy="3" r="3" transform="translate(722 114) scale(3.26167)"/><circle cx="3" cy="3" r="3" transform="translate(741 114) scale(3.26167)"/><circle cx="3" cy="3" r="3" transform="translate(190 133) scale(3.26167)"/><circle cx="3" cy="3" r="3" transform="translate(209 133) scale(3.26167)"/><circle cx="3" cy="3" r="3" transform="translate(228 133) scale(3.26167)"/><circle cx="3" cy="3" r="3" transform="translate(266 133) scale(3.26167)"/><circle cx="3" cy="3" r="3" transform="translate(304 133) scale(3.26167)"/><circle cx="3" cy="3" r="3" transform="translate(342 133) scale(3.26167)"/><circle cx="3" cy="3" r="3" transform="translate(361 133) scale(3.26167)"/><circle cx="3" cy="3" r="3" transform="translate(380 133) scale(3.26167)"/><circle cx="3" cy="3" r="3" transform="translate(437 133) scale(3.26167)"/><circle cx="3" cy="3" r="3" transform="translate(456 133) scale(3.26167)"/><circle cx="3" cy="3" r="3" transform="translate(532 133) scale(3.26167)"/><circle cx="3" cy="3" r="3" transform="translate(570 133) scale(3.26167)"/><circle cx="3" cy="3" r="3" transform="translate(646 133) scale(3.26167)"/><circle cx="3" cy="3" r="3" transform="translate(665 133) scale(3.26167)"/><circle cx="3" cy="3" r="3" transform="translate(684 133) scale(3.26167)"/><circle cx="3" cy="3" r="3" transform="translate(760 133) scale(3.26167)"/><circle cx="3" cy="3" r="3" transform="translate(190 152) scale(3.26167)"/><circle cx="3" cy="3" r="3" transform="translate(228 152) scale(3.26167)"/><circle cx="3" cy="3" r="3" transform="translate(266 152) scale(3.26167)"/><circle cx="3" cy="3" r="3" transform="translate(304 152) scale(3.26167)"/><circle cx="3" cy="3" r="3" transform="translate(342 152) scale(3.26167)"/><circle cx="3" cy="3" r="3" transform="translate(380 152) scale(3.26167)"/><circle cx="3" cy="3" r="3" transform="translate(418 152) scale(3.26167)"/><circle cx="3" cy="3" r="3" transform="translate(456 152) scale(3.26167)"/><circle cx="3" cy="3" r="3" transform="translate(494 152) scale(3.26167)"/><circle cx="3" cy="3" r="3" transform="translate(532 152) scale(3.26167)"/><circle cx="3" cy="3" r="3" transform="translate(570 152) scale(3.26167)"/><circle cx="3" cy="3" r="3" transform="translate(608 152) scale(3.26167)"/><circle cx="3" cy="3" r="3" transform="translate(646 152) scale(3.26167)"/><circle cx="3" cy="3" r="3" transform="translate(684 152) scale(3.26167)"/><circle cx="3" cy="3" r="3" transform="translate(722 152) scale(3.26167)"/><circle cx="3" cy="3" r="3" transform="translate(760 152) scale(3.26167)"/><circle cx="3" cy="3" r="3" transform="translate(798 152) scale(3.26167)"/><circle cx="3" cy="3" r="3" transform="translate(190 171) scale(3.26167)"/><circle cx="3" cy="3" r="3" transform="translate(209 171) scale(3.26167)"/><circle cx="3" cy="3" r="3" transform="translate(228 171) scale(3.26167)"/><circle cx="3" cy="3" r="3" transform="translate(323 171) scale(3.26167)"/><circle cx="3" cy="3" r="3" transform="translate(380 171) scale(3.26167)"/><circle cx="3" cy="3" r="3" transform="translate(399 171) scale(3.26167)"/><circle cx="3" cy="3" r="3" transform="translate(456 171) scale(3.26167)"/><circle cx="3" cy="3" r="3" transform="translate(532 171) scale(3.26167)"/><circle cx="3" cy="3" r="3" transform="translate(551 171) scale(3.26167)"/><circle cx="3" cy="3" r="3" transform="translate(608 171) scale(3.26167)"/><circle cx="3" cy="3" r="3" transform="translate(627 171) scale(3.26167)"/><circle cx="3" cy="3" r="3" transform="translate(646 171) scale(3.26167)"/><circle cx="3" cy="3" r="3" transform="translate(665 171) scale(3.26167)"/><circle cx="3" cy="3" r="3" transform="translate(703 171) scale(3.26167)"/><circle cx="3" cy="3" r="3" transform="translate(722 171) scale(3.26167)"/><circle cx="3" cy="3" r="3" transform="translate(779 171) scale(3.26167)"/><circle cx="3" cy="3" r="3" transform="translate(76 190) scale(3.26167)"/><circle cx="3" cy="3" r="3" transform="translate(95 190) scale(3.26167)"/><circle cx="3" cy="3" r="3" transform="translate(114 190) scale(3.26167)"/><circle cx="3" cy="3" r="3" transform="translate(152 190) scale(3.26167)"/><circle cx="3" cy="3" r="3" transform="translate(190 190) scale(3.26167)"/><circle cx="3" cy="3" r="3" transform="translate(228 190) scale(3.26167)"/><circle cx="3" cy="3" r="3" transform="translate(266 190) scale(3.26167)"/><circle cx="3" cy="3" r="3" transform="translate(285 190) scale(3.26167)"/><circle cx="3" cy="3" r="3" transform="translate(399 190) scale(3.26167)"/><circle cx="3" cy="3" r="3" transform="translate(418 190) scale(3.26167)"/><circle cx="3" cy="3" r="3" transform="translate(456 190) scale(3.26167)"/><circle cx="3" cy="3" r="3" transform="translate(475 190) scale(3.26167)"/><circle cx="3" cy="3" r="3" transform="translate(494 190) scale(3.26167)"/><circle cx="3" cy="3" r="3" transform="translate(513 190) scale(3.26167)"/><circle cx="3" cy="3" r="3" transform="translate(532 190) scale(3.26167)"/><circle cx="3" cy="3" r="3" transform="translate(570 190) scale(3.26167)"/><circle cx="3" cy="3" r="3" transform="translate(627 190) scale(3.26167)"/><circle cx="3" cy="3" r="3" transform="translate(646 190) scale(3.26167)"/><circle cx="3" cy="3" r="3" transform="translate(722 190) scale(3.26167)"/><circle cx="3" cy="3" r="3" transform="translate(741 190) scale(3.26167)"/><circle cx="3" cy="3" r="3" transform="translate(760 190) scale(3.26167)"/><circle cx="3" cy="3" r="3" transform="translate(798 190) scale(3.26167)"/><circle cx="3" cy="3" r="3" transform="translate(817 190) scale(3.26167)"/><circle cx="3" cy="3" r="3" transform="translate(836 190) scale(3.26167)"/><circle cx="3" cy="3" r="3" transform="translate(855 190) scale(3.26167)"/><circle cx="3" cy="3" r="3" transform="translate(912 190) scale(3.26167)"/><circle cx="3" cy="3" r="3" transform="translate(931 190) scale(3.26167)"/><circle cx="3" cy="3" r="3" transform="translate(950 190) scale(3.26167)"/><circle cx="3" cy="3" r="3" transform="translate(38 209) scale(3.26167)"/><circle cx="3" cy="3" r="3" transform="translate(57 209) scale(3.26167)"/><circle cx="3" cy="3" r="3" transform="translate(76 209) scale(3.26167)"/><circle cx="3" cy="3" r="3" transform="translate(247 209) scale(3.26167)"/><circle cx="3" cy="3" r="3" transform="translate(266 209) scale(3.26167)"/><circle cx="3" cy="3" r="3" transform="translate(323 209) scale(3.26167)"/><circle cx="3" cy="3" r="3" transform="translate(342 209) scale(3.26167)"/><circle cx="3" cy="3" r="3" transform="translate(361 209) scale(3.26167)"/><circle cx="3" cy="3" r="3" transform="translate(380 209) scale(3.26167)"/><circle cx="3" cy="3" r="3" transform="translate(418 209) scale(3.26167)"/><circle cx="3" cy="3" r="3" transform="translate(456 209) scale(3.26167)"/><circle cx="3" cy="3" r="3" transform="translate(475 209) scale(3.26167)"/><circle cx="3" cy="3" r="3" transform="translate(513 209) scale(3.26167)"/><circle cx="3" cy="3" r="3" transform="translate(589 209) scale(3.26167)"/><circle cx="3" cy="3" r="3" transform="translate(608 209) scale(3.26167)"/><circle cx="3" cy="3" r="3" transform="translate(627 209) scale(3.26167)"/><circle cx="3" cy="3" r="3" transform="translate(703 209) scale(3.26167)"/><circle cx="3" cy="3" r="3" transform="translate(722 209) scale(3.26167)"/><circle cx="3" cy="3" r="3" transform="translate(741 209) scale(3.26167)"/><circle cx="3" cy="3" r="3" transform="translate(817 209) scale(3.26167)"/><circle cx="3" cy="3" r="3" transform="translate(836 209) scale(3.26167)"/><circle cx="3" cy="3" r="3" transform="translate(912 209) scale(3.26167)"/><circle cx="3" cy="3" r="3" transform="translate(57 228) scale(3.26167)"/><circle cx="3" cy="3" r="3" transform="translate(95 228) scale(3.26167)"/><circle cx="3" cy="3" r="3" transform="translate(133 228) scale(3.26167)"/><circle cx="3" cy="3" r="3" transform="translate(152 228) scale(3.26167)"/><circle cx="3" cy="3" r="3" transform="translate(190 228) scale(3.26167)"/><circle cx="3" cy="3" r="3" transform="translate(228 228) scale(3.26167)"/><circle cx="3" cy="3" r="3" transform="translate(266 228) scale(3.26167)"/><circle cx="3" cy="3" r="3" transform="translate(323 228) scale(3.26167)"/><circle cx="3" cy="3" r="3" transform="translate(342 228) scale(3.26167)"/><circle cx="3" cy="3" r="3" transform="translate(361 228) scale(3.26167)"/><circle cx="3" cy="3" r="3" transform="translate(380 228) scale(3.26167)"/><circle cx="3" cy="3" r="3" transform="translate(437 228) scale(3.26167)"/><circle cx="3" cy="3" r="3" transform="translate(475 228) scale(3.26167)"/><circle cx="3" cy="3" r="3" transform="translate(513 228) scale(3.26167)"/><circle cx="3" cy="3" r="3" transform="translate(570 228) scale(3.26167)"/><circle cx="3" cy="3" r="3" transform="translate(589 228) scale(3.26167)"/><circle cx="3" cy="3" r="3" transform="translate(627 228) scale(3.26167)"/><circle cx="3" cy="3" r="3" transform="translate(684 228) scale(3.26167)"/><circle cx="3" cy="3" r="3" transform="translate(722 228) scale(3.26167)"/><circle cx="3" cy="3" r="3" transform="translate(760 228) scale(3.26167)"/><circle cx="3" cy="3" r="3" transform="translate(798 228) scale(3.26167)"/><circle cx="3" cy="3" r="3" transform="translate(817 228) scale(3.26167)"/><circle cx="3" cy="3" r="3" transform="translate(893 228) scale(3.26167)"/><circle cx="3" cy="3" r="3" transform="translate(912 228) scale(3.26167)"/><circle cx="3" cy="3" r="3" transform="translate(931 228) scale(3.26167)"/><circle cx="3" cy="3" r="3" transform="translate(950 228) scale(3.26167)"/><circle cx="3" cy="3" r="3" transform="translate(38 247) scale(3.26167)"/><circle cx="3" cy="3" r="3" transform="translate(57 247) scale(3.26167)"/><circle cx="3" cy="3" r="3" transform="translate(76 247) scale(3.26167)"/><circle cx="3" cy="3" r="3" transform="translate(95 247) scale(3.26167)"/><circle cx="3" cy="3" r="3" transform="translate(171 247) scale(3.26167)"/><circle cx="3" cy="3" r="3" transform="translate(209 247) scale(3.26167)"/><circle cx="3" cy="3" r="3" transform="translate(323 247) scale(3.26167)"/><circle cx="3" cy="3" r="3" transform="translate(418 247) scale(3.26167)"/><circle cx="3" cy="3" r="3" transform="translate(475 247) scale(3.26167)"/><circle cx="3" cy="3" r="3" transform="translate(513 247) scale(3.26167)"/><circle cx="3" cy="3" r="3" transform="translate(532 247) scale(3.26167)"/><circle cx="3" cy="3" r="3" transform="translate(570 247) scale(3.26167)"/><circle cx="3" cy="3" r="3" transform="translate(589 247) scale(3.26167)"/><circle cx="3" cy="3" r="3" transform="translate(608 247) scale(3.26167)"/><circle cx="3" cy="3" r="3" transform="translate(627 247) scale(3.26167)"/><circle cx="3" cy="3" r="3" transform="translate(684 247) scale(3.26167)"/><circle cx="3" cy="3" r="3" transform="translate(779 247) scale(3.26167)"/><circle cx="3" cy="3" r="3" transform="translate(798 247) scale(3.26167)"/><circle cx="3" cy="3" r="3" transform="translate(817 247) scale(3.26167)"/><circle cx="3" cy="3" r="3" transform="translate(836 247) scale(3.26167)"/><circle cx="3" cy="3" r="3" transform="translate(874 247) scale(3.26167)"/><circle cx="3" cy="3" r="3" transform="translate(893 247) scale(3.26167)"/><circle cx="3" cy="3" r="3" transform="translate(931 247) scale(3.26167)"/><circle cx="3" cy="3" r="3" transform="translate(38 266) scale(3.26167)"/><circle cx="3" cy="3" r="3" transform="translate(57 266) scale(3.26167)"/><circle cx="3" cy="3" r="3" transform="translate(152 266) scale(3.26167)"/><circle cx="3" cy="3" r="3" transform="translate(190 266) scale(3.26167)"/><circle cx="3" cy="3" r="3" transform="translate(247 266) scale(3.26167)"/><circle cx="3" cy="3" r="3" transform="translate(323 266) scale(3.26167)"/><circle cx="3" cy="3" r="3" transform="translate(380 266) scale(3.26167)"/><circle cx="3" cy="3" r="3" transform="translate(437 266) scale(3.26167)"/><circle cx="3" cy="3" r="3" transform="translate(456 266) scale(3.26167)"/><circle cx="3" cy="3" r="3" transform="translate(494 266) scale(3.26167)"/><circle cx="3" cy="3" r="3" transform="translate(570 266) scale(3.26167)"/><circle cx="3" cy="3" r="3" transform="translate(646 266) scale(3.26167)"/><circle cx="3" cy="3" r="3" transform="translate(684 266) scale(3.26167)"/><circle cx="3" cy="3" r="3" transform="translate(722 266) scale(3.26167)"/><circle cx="3" cy="3" r="3" transform="translate(741 266) scale(3.26167)"/><circle cx="3" cy="3" r="3" transform="translate(779 266) scale(3.26167)"/><circle cx="3" cy="3" r="3" transform="translate(798 266) scale(3.26167)"/><circle cx="3" cy="3" r="3" transform="translate(817 266) scale(3.26167)"/><circle cx="3" cy="3" r="3" transform="translate(836 266) scale(3.26167)"/><circle cx="3" cy="3" r="3" transform="translate(855 266) scale(3.26167)"/><circle cx="3" cy="3" r="3" transform="translate(893 266) scale(3.26167)"/><circle cx="3" cy="3" r="3" transform="translate(912 266) scale(3.26167)"/><circle cx="3" cy="3" r="3" transform="translate(931 266) scale(3.26167)"/><circle cx="3" cy="3" r="3" transform="translate(38 285) scale(3.26167)"/><circle cx="3" cy="3" r="3" transform="translate(76 285) scale(3.26167)"/><circle cx="3" cy="3" r="3" transform="translate(171 285) scale(3.26167)"/><circle cx="3" cy="3" r="3" transform="translate(190 285) scale(3.26167)"/><circle cx="3" cy="3" r="3" transform="translate(247 285) scale(3.26167)"/><circle cx="3" cy="3" r="3" transform="translate(285 285) scale(3.26167)"/><circle cx="3" cy="3" r="3" transform="translate(323 285) scale(3.26167)"/><circle cx="3" cy="3" r="3" transform="translate(380 285) scale(3.26167)"/><circle cx="3" cy="3" r="3" transform="translate(399 285) scale(3.26167)"/><circle cx="3" cy="3" r="3" transform="translate(437 285) scale(3.26167)"/><circle cx="3" cy="3" r="3" transform="translate(456 285) scale(3.26167)"/><circle cx="3" cy="3" r="3" transform="translate(475 285) scale(3.26167)"/><circle cx="3" cy="3" r="3" transform="translate(513 285) scale(3.26167)"/><circle cx="3" cy="3" r="3" transform="translate(532 285) scale(3.26167)"/><circle cx="3" cy="3" r="3" transform="translate(570 285) scale(3.26167)"/><circle cx="3" cy="3" r="3" transform="translate(608 285) scale(3.26167)"/><circle cx="3" cy="3" r="3" transform="translate(627 285) scale(3.26167)"/><circle cx="3" cy="3" r="3" transform="translate(646 285) scale(3.26167)"/><circle cx="3" cy="3" r="3" transform="translate(703 285) scale(3.26167)"/><circle cx="3" cy="3" r="3" transform="translate(741 285) scale(3.26167)"/><circle cx="3" cy="3" r="3" transform="translate(779 285) scale(3.26167)"/><circle cx="3" cy="3" r="3" transform="translate(817 285) scale(3.26167)"/><circle cx="3" cy="3" r="3" transform="translate(836 285) scale(3.26167)"/><circle cx="3" cy="3" r="3" transform="translate(874 285) scale(3.26167)"/><circle cx="3" cy="3" r="3" transform="translate(893 285) scale(3.26167)"/><circle cx="3" cy="3" r="3" transform="translate(57 304) scale(3.26167)"/><circle cx="3" cy="3" r="3" transform="translate(76 304) scale(3.26167)"/><circle cx="3" cy="3" r="3" transform="translate(114 304) scale(3.26167)"/><circle cx="3" cy="3" r="3" transform="translate(133 304) scale(3.26167)"/><circle cx="3" cy="3" r="3" transform="translate(152 304) scale(3.26167)"/><circle cx="3" cy="3" r="3" transform="translate(209 304) scale(3.26167)"/><circle cx="3" cy="3" r="3" transform="translate(266 304) scale(3.26167)"/><circle cx="3" cy="3" r="3" transform="translate(323 304) scale(3.26167)"/><circle cx="3" cy="3" r="3" transform="translate(361 304) scale(3.26167)"/><circle cx="3" cy="3" r="3" transform="translate(380 304) scale(3.26167)"/><circle cx="3" cy="3" r="3" transform="translate(456 304) scale(3.26167)"/><circle cx="3" cy="3" r="3" transform="translate(475 304) scale(3.26167)"/><circle cx="3" cy="3" r="3" transform="translate(494 304) scale(3.26167)"/><circle cx="3" cy="3" r="3" transform="translate(532 304) scale(3.26167)"/><circle cx="3" cy="3" r="3" transform="translate(551 304) scale(3.26167)"/><circle cx="3" cy="3" r="3" transform="translate(570 304) scale(3.26167)"/><circle cx="3" cy="3" r="3" transform="translate(589 304) scale(3.26167)"/><circle cx="3" cy="3" r="3" transform="translate(608 304) scale(3.26167)"/><circle cx="3" cy="3" r="3" transform="translate(627 304) scale(3.26167)"/><circle cx="3" cy="3" r="3" transform="translate(665 304) scale(3.26167)"/><circle cx="3" cy="3" r="3" transform="translate(684 304) scale(3.26167)"/><circle cx="3" cy="3" r="3" transform="translate(722 304) scale(3.26167)"/><circle cx="3" cy="3" r="3" transform="translate(741 304) scale(3.26167)"/><circle cx="3" cy="3" r="3" transform="translate(760 304) scale(3.26167)"/><circle cx="3" cy="3" r="3" transform="translate(779 304) scale(3.26167)"/><circle cx="3" cy="3" r="3" transform="translate(798 304) scale(3.26167)"/><circle cx="3" cy="3" r="3" transform="translate(855 304) scale(3.26167)"/><circle cx="3" cy="3" r="3" transform="translate(912 304) scale(3.26167)"/><circle cx="3" cy="3" r="3" transform="translate(950 304) scale(3.26167)"/><circle cx="3" cy="3" r="3" transform="translate(133 323) scale(3.26167)"/><circle cx="3" cy="3" r="3" transform="translate(171 323) scale(3.26167)"/><circle cx="3" cy="3" r="3" transform="translate(266 323) scale(3.26167)"/><circle cx="3" cy="3" r="3" transform="translate(304 323) scale(3.26167)"/><circle cx="3" cy="3" r="3" transform="translate(323 323) scale(3.26167)"/><circle cx="3" cy="3" r="3" transform="translate(342 323) scale(3.26167)"/><circle cx="3" cy="3" r="3" transform="translate(399 323) scale(3.26167)"/><circle cx="3" cy="3" r="3" transform="translate(513 323) scale(3.26167)"/><circle cx="3" cy="3" r="3" transform="translate(532 323) scale(3.26167)"/><circle cx="3" cy="3" r="3" transform="translate(570 323) scale(3.26167)"/><circle cx="3" cy="3" r="3" transform="translate(589 323) scale(3.26167)"/><circle cx="3" cy="3" r="3" transform="translate(627 323) scale(3.26167)"/><circle cx="3" cy="3" r="3" transform="translate(684 323) scale(3.26167)"/><circle cx="3" cy="3" r="3" transform="translate(741 323) scale(3.26167)"/><circle cx="3" cy="3" r="3" transform="translate(760 323) scale(3.26167)"/><circle cx="3" cy="3" r="3" transform="translate(779 323) scale(3.26167)"/><circle cx="3" cy="3" r="3" transform="translate(798 323) scale(3.26167)"/><circle cx="3" cy="3" r="3" transform="translate(836 323) scale(3.26167)"/><circle cx="3" cy="3" r="3" transform="translate(874 323) scale(3.26167)"/><circle cx="3" cy="3" r="3" transform="translate(57 342) scale(3.26167)"/><circle cx="3" cy="3" r="3" transform="translate(76 342) scale(3.26167)"/><circle cx="3" cy="3" r="3" transform="translate(95 342) scale(3.26167)"/><circle cx="3" cy="3" r="3" transform="translate(133 342) scale(3.26167)"/><circle cx="3" cy="3" r="3" transform="translate(152 342) scale(3.26167)"/><circle cx="3" cy="3" r="3" transform="translate(190 342) scale(3.26167)"/><circle cx="3" cy="3" r="3" transform="translate(209 342) scale(3.26167)"/><circle cx="3" cy="3" r="3" transform="translate(228 342) scale(3.26167)"/><circle cx="3" cy="3" r="3" transform="translate(266 342) scale(3.26167)"/><circle cx="3" cy="3" r="3" transform="translate(304 342) scale(3.26167)"/><circle cx="3" cy="3" r="3" transform="translate(342 342) scale(3.26167)"/><circle cx="3" cy="3" r="3" transform="translate(532 342) scale(3.26167)"/><circle cx="3" cy="3" r="3" transform="translate(551 342) scale(3.26167)"/><circle cx="3" cy="3" r="3" transform="translate(627 342) scale(3.26167)"/><circle cx="3" cy="3" r="3" transform="translate(665 342) scale(3.26167)"/><circle cx="3" cy="3" r="3" transform="translate(684 342) scale(3.26167)"/><circle cx="3" cy="3" r="3" transform="translate(703 342) scale(3.26167)"/><circle cx="3" cy="3" r="3" transform="translate(722 342) scale(3.26167)"/><circle cx="3" cy="3" r="3" transform="translate(760 342) scale(3.26167)"/><circle cx="3" cy="3" r="3" transform="translate(817 342) scale(3.26167)"/><circle cx="3" cy="3" r="3" transform="translate(836 342) scale(3.26167)"/><circle cx="3" cy="3" r="3" transform="translate(855 342) scale(3.26167)"/><circle cx="3" cy="3" r="3" transform="translate(912 342) scale(3.26167)"/><circle cx="3" cy="3" r="3" transform="translate(931 342) scale(3.26167)"/><circle cx="3" cy="3" r="3" transform="translate(950 342) scale(3.26167)"/><circle cx="3" cy="3" r="3" transform="translate(38 361) scale(3.26167)"/><circle cx="3" cy="3" r="3" transform="translate(57 361) scale(3.26167)"/><circle cx="3" cy="3" r="3" transform="translate(133 361) scale(3.26167)"/><circle cx="3" cy="3" r="3" transform="translate(171 361) scale(3.26167)"/><circle cx="3" cy="3" r="3" transform="translate(190 361) scale(3.26167)"/><circle cx="3" cy="3" r="3" transform="translate(209 361) scale(3.26167)"/><circle cx="3" cy="3" r="3" transform="translate(342 361) scale(3.26167)"/><circle cx="3" cy="3" r="3" transform="translate(361 361) scale(3.26167)"/><circle cx="3" cy="3" r="3" transform="translate(437 361) scale(3.26167)"/><circle cx="3" cy="3" r="3" transform="translate(456 361) scale(3.26167)"/><circle cx="3" cy="3" r="3" transform="translate(475 361) scale(3.26167)"/><circle cx="3" cy="3" r="3" transform="translate(513 361) scale(3.26167)"/><circle cx="3" cy="3" r="3" transform="translate(570 361) scale(3.26167)"/><circle cx="3" cy="3" r="3" transform="translate(589 361) scale(3.26167)"/><circle cx="3" cy="3" r="3" transform="translate(684 361) scale(3.26167)"/><circle cx="3" cy="3" r="3" transform="translate(722 361) scale(3.26167)"/><circle cx="3" cy="3" r="3" transform="translate(741 361) scale(3.26167)"/><circle cx="3" cy="3" r="3" transform="translate(760 361) scale(3.26167)"/><circle cx="3" cy="3" r="3" transform="translate(779 361) scale(3.26167)"/><circle cx="3" cy="3" r="3" transform="translate(836 361) scale(3.26167)"/><circle cx="3" cy="3" r="3" transform="translate(855 361) scale(3.26167)"/><circle cx="3" cy="3" r="3" transform="translate(874 361) scale(3.26167)"/><circle cx="3" cy="3" r="3" transform="translate(893 361) scale(3.26167)"/><circle cx="3" cy="3" r="3" transform="translate(912 361) scale(3.26167)"/><circle cx="3" cy="3" r="3" transform="translate(38 380) scale(3.26167)"/><circle cx="3" cy="3" r="3" transform="translate(57 380) scale(3.26167)"/><circle cx="3" cy="3" r="3" transform="translate(76 380) scale(3.26167)"/><circle cx="3" cy="3" r="3" transform="translate(95 380) scale(3.26167)"/><circle cx="3" cy="3" r="3" transform="translate(114 380) scale(3.26167)"/><circle cx="3" cy="3" r="3" transform="translate(133 380) scale(3.26167)"/><circle cx="3" cy="3" r="3" transform="translate(152 380) scale(3.26167)"/><circle cx="3" cy="3" r="3" transform="translate(171 380) scale(3.26167)"/><circle cx="3" cy="3" r="3" transform="translate(247 380) scale(3.26167)"/><circle cx="3" cy="3" r="3" transform="translate(266 380) scale(3.26167)"/><circle cx="3" cy="3" r="3" transform="translate(285 380) scale(3.26167)"/><circle cx="3" cy="3" r="3" transform="translate(304 380) scale(3.26167)"/><circle cx="3" cy="3" r="3" transform="translate(323 380) scale(3.26167)"/><circle cx="3" cy="3" r="3" transform="translate(361 380) scale(3.26167)"/><circle cx="3" cy="3" r="3" transform="translate(456 380) scale(3.26167)"/><circle cx="3" cy="3" r="3" transform="translate(494 380) scale(3.26167)"/><circle cx="3" cy="3" r="3" transform="translate(513 380) scale(3.26167)"/><circle cx="3" cy="3" r="3" transform="translate(646 380) scale(3.26167)"/><circle cx="3" cy="3" r="3" transform="translate(665 380) scale(3.26167)"/><circle cx="3" cy="3" r="3" transform="translate(703 380) scale(3.26167)"/><circle cx="3" cy="3" r="3" transform="translate(722 380) scale(3.26167)"/><circle cx="3" cy="3" r="3" transform="translate(817 380) scale(3.26167)"/><circle cx="3" cy="3" r="3" transform="translate(836 380) scale(3.26167)"/><circle cx="3" cy="3" r="3" transform="translate(855 380) scale(3.26167)"/><circle cx="3" cy="3" r="3" transform="translate(874 380) scale(3.26167)"/><circle cx="3" cy="3" r="3" transform="translate(893 380) scale(3.26167)"/><circle cx="3" cy="3" r="3" transform="translate(950 380) scale(3.26167)"/><circle cx="3" cy="3" r="3" transform="translate(38 399) scale(3.26167)"/><circle cx="3" cy="3" r="3" transform="translate(95 399) scale(3.26167)"/><circle cx="3" cy="3" r="3" transform="translate(133 399) scale(3.26167)"/><circle cx="3" cy="3" r="3" transform="translate(190 399) scale(3.26167)"/><circle cx="3" cy="3" r="3" transform="translate(228 399) scale(3.26167)"/><circle cx="3" cy="3" r="3" transform="translate(247 399) scale(3.26167)"/><circle cx="3" cy="3" r="3" transform="translate(266 399) scale(3.26167)"/><circle cx="3" cy="3" r="3" transform="translate(304 399) scale(3.26167)"/><circle cx="3" cy="3" r="3" transform="translate(323 399) scale(3.26167)"/><circle cx="3" cy="3" r="3" transform="translate(342 399) scale(3.26167)"/><circle cx="3" cy="3" r="3" transform="translate(380 399) scale(3.26167)"/><circle cx="3" cy="3" r="3" transform="translate(437 399) scale(3.26167)"/><circle cx="3" cy="3" r="3" transform="translate(494 399) scale(3.26167)"/><circle cx="3" cy="3" r="3" transform="translate(532 399) scale(3.26167)"/><circle cx="3" cy="3" r="3" transform="translate(551 399) scale(3.26167)"/><circle cx="3" cy="3" r="3" transform="translate(570 399) scale(3.26167)"/><circle cx="3" cy="3" r="3" transform="translate(608 399) scale(3.26167)"/><circle cx="3" cy="3" r="3" transform="translate(646 399) scale(3.26167)"/><circle cx="3" cy="3" r="3" transform="translate(741 399) scale(3.26167)"/><circle cx="3" cy="3" r="3" transform="translate(760 399) scale(3.26167)"/><circle cx="3" cy="3" r="3" transform="translate(779 399) scale(3.26167)"/><circle cx="3" cy="3" r="3" transform="translate(836 399) scale(3.26167)"/><circle cx="3" cy="3" r="3" transform="translate(855 399) scale(3.26167)"/><circle cx="3" cy="3" r="3" transform="translate(874 399) scale(3.26167)"/><circle cx="3" cy="3" r="3" transform="translate(38 418) scale(3.26167)"/><circle cx="3" cy="3" r="3" transform="translate(76 418) scale(3.26167)"/><circle cx="3" cy="3" r="3" transform="translate(114 418) scale(3.26167)"/><circle cx="3" cy="3" r="3" transform="translate(152 418) scale(3.26167)"/><circle cx="3" cy="3" r="3" transform="translate(190 418) scale(3.26167)"/><circle cx="3" cy="3" r="3" transform="translate(247 418) scale(3.26167)"/><circle cx="3" cy="3" r="3" transform="translate(266 418) scale(3.26167)"/><circle cx="3" cy="3" r="3" transform="translate(285 418) scale(3.26167)"/><circle cx="3" cy="3" r="3" transform="translate(304 418) scale(3.26167)"/><circle cx="3" cy="3" r="3" transform="translate(323 418) scale(3.26167)"/><circle cx="3" cy="3" r="3" transform="translate(380 418) scale(3.26167)"/><circle cx="3" cy="3" r="3" transform="translate(418 418) scale(3.26167)"/><circle cx="3" cy="3" r="3" transform="translate(475 418) scale(3.26167)"/><circle cx="3" cy="3" r="3" transform="translate(494 418) scale(3.26167)"/><circle cx="3" cy="3" r="3" transform="translate(513 418) scale(3.26167)"/><circle cx="3" cy="3" r="3" transform="translate(551 418) scale(3.26167)"/><circle cx="3" cy="3" r="3" transform="translate(570 418) scale(3.26167)"/><circle cx="3" cy="3" r="3" transform="translate(589 418) scale(3.26167)"/><circle cx="3" cy="3" r="3" transform="translate(608 418) scale(3.26167)"/><circle cx="3" cy="3" r="3" transform="translate(646 418) scale(3.26167)"/><circle cx="3" cy="3" r="3" transform="translate(665 418) scale(3.26167)"/><circle cx="3" cy="3" r="3" transform="translate(703 418) scale(3.26167)"/><circle cx="3" cy="3" r="3" transform="translate(722 418) scale(3.26167)"/><circle cx="3" cy="3" r="3" transform="translate(741 418) scale(3.26167)"/><circle cx="3" cy="3" r="3" transform="translate(760 418) scale(3.26167)"/><circle cx="3" cy="3" r="3" transform="translate(779 418) scale(3.26167)"/><circle cx="3" cy="3" r="3" transform="translate(798 418) scale(3.26167)"/><circle cx="3" cy="3" r="3" transform="translate(836 418) scale(3.26167)"/><circle cx="3" cy="3" r="3" transform="translate(855 418) scale(3.26167)"/><circle cx="3" cy="3" r="3" transform="translate(912 418) scale(3.26167)"/><circle cx="3" cy="3" r="3" transform="translate(950 418) scale(3.26167)"/><circle cx="3" cy="3" r="3" transform="translate(38 437) scale(3.26167)"/><circle cx="3" cy="3" r="3" transform="translate(57 437) scale(3.26167)"/><circle cx="3" cy="3" r="3" transform="translate(95 437) scale(3.26167)"/><circle cx="3" cy="3" r="3" transform="translate(133 437) scale(3.26167)"/><circle cx="3" cy="3" r="3" transform="translate(171 437) scale(3.26167)"/><circle cx="3" cy="3" r="3" transform="translate(190 437) scale(3.26167)"/><circle cx="3" cy="3" r="3" transform="translate(228 437) scale(3.26167)"/><circle cx="3" cy="3" r="3" transform="translate(304 437) scale(3.26167)"/><circle cx="3" cy="3" r="3" transform="translate(323 437) scale(3.26167)"/><circle cx="3" cy="3" r="3" transform="translate(342 437) scale(3.26167)"/><circle cx="3" cy="3" r="3" transform="translate(418 437) scale(3.26167)"/><circle cx="3" cy="3" r="3" transform="translate(475 437) scale(3.26167)"/><circle cx="3" cy="3" r="3" transform="translate(494 437) scale(3.26167)"/><circle cx="3" cy="3" r="3" transform="translate(513 437) scale(3.26167)"/><circle cx="3" cy="3" r="3" transform="translate(532 437) scale(3.26167)"/><circle cx="3" cy="3" r="3" transform="translate(570 437) scale(3.26167)"/><circle cx="3" cy="3" r="3" transform="translate(589 437) scale(3.26167)"/><circle cx="3" cy="3" r="3" transform="translate(722 437) scale(3.26167)"/><circle cx="3" cy="3" r="3" transform="translate(817 437) scale(3.26167)"/><circle cx="3" cy="3" r="3" transform="translate(836 437) scale(3.26167)"/><circle cx="3" cy="3" r="3" transform="translate(912 437) scale(3.26167)"/><circle cx="3" cy="3" r="3" transform="translate(57 456) scale(3.26167)"/><circle cx="3" cy="3" r="3" transform="translate(76 456) scale(3.26167)"/><circle cx="3" cy="3" r="3" transform="translate(95 456) scale(3.26167)"/><circle cx="3" cy="3" r="3" transform="translate(114 456) scale(3.26167)"/><circle cx="3" cy="3" r="3" transform="translate(133 456) scale(3.26167)"/><circle cx="3" cy="3" r="3" transform="translate(152 456) scale(3.26167)"/><circle cx="3" cy="3" r="3" transform="translate(171 456) scale(3.26167)"/><circle cx="3" cy="3" r="3" transform="translate(190 456) scale(3.26167)"/><circle cx="3" cy="3" r="3" transform="translate(209 456) scale(3.26167)"/><circle cx="3" cy="3" r="3" transform="translate(228 456) scale(3.26167)"/><circle cx="3" cy="3" r="3" transform="translate(266 456) scale(3.26167)"/><circle cx="3" cy="3" r="3" transform="translate(304 456) scale(3.26167)"/><circle cx="3" cy="3" r="3" transform="translate(323 456) scale(3.26167)"/><circle cx="3" cy="3" r="3" transform="translate(342 456) scale(3.26167)"/><circle cx="3" cy="3" r="3" transform="translate(361 456) scale(3.26167)"/><circle cx="3" cy="3" r="3" transform="translate(380 456) scale(3.26167)"/><circle cx="3" cy="3" r="3" transform="translate(418 456) scale(3.26167)"/><circle cx="3" cy="3" r="3" transform="translate(437 456) scale(3.26167)"/><circle cx="3" cy="3" r="3" transform="translate(456 456) scale(3.26167)"/><circle cx="3" cy="3" r="3" transform="translate(475 456) scale(3.26167)"/><circle cx="3" cy="3" r="3" transform="translate(494 456) scale(3.26167)"/><circle cx="3" cy="3" r="3" transform="translate(513 456) scale(3.26167)"/><circle cx="3" cy="3" r="3" transform="translate(532 456) scale(3.26167)"/><circle cx="3" cy="3" r="3" transform="translate(551 456) scale(3.26167)"/><circle cx="3" cy="3" r="3" transform="translate(570 456) scale(3.26167)"/><circle cx="3" cy="3" r="3" transform="translate(646 456) scale(3.26167)"/><circle cx="3" cy="3" r="3" transform="translate(665 456) scale(3.26167)"/><circle cx="3" cy="3" r="3" transform="translate(684 456) scale(3.26167)"/><circle cx="3" cy="3" r="3" transform="translate(703 456) scale(3.26167)"/><circle cx="3" cy="3" r="3" transform="translate(760 456) scale(3.26167)"/><circle cx="3" cy="3" r="3" transform="translate(798 456) scale(3.26167)"/><circle cx="3" cy="3" r="3" transform="translate(817 456) scale(3.26167)"/><circle cx="3" cy="3" r="3" transform="translate(836 456) scale(3.26167)"/><circle cx="3" cy="3" r="3" transform="translate(855 456) scale(3.26167)"/><circle cx="3" cy="3" r="3" transform="translate(874 456) scale(3.26167)"/><circle cx="3" cy="3" r="3" transform="translate(893 456) scale(3.26167)"/><circle cx="3" cy="3" r="3" transform="translate(912 456) scale(3.26167)"/><circle cx="3" cy="3" r="3" transform="translate(931 456) scale(3.26167)"/><circle cx="3" cy="3" r="3" transform="translate(950 456) scale(3.26167)"/><circle cx="3" cy="3" r="3" transform="translate(57 475) scale(3.26167)"/><circle cx="3" cy="3" r="3" transform="translate(114 475) scale(3.26167)"/><circle cx="3" cy="3" r="3" transform="translate(190 475) scale(3.26167)"/><circle cx="3" cy="3" r="3" transform="translate(285 475) scale(3.26167)"/><circle cx="3" cy="3" r="3" transform="translate(304 475) scale(3.26167)"/><circle cx="3" cy="3" r="3" transform="translate(342 475) scale(3.26167)"/><circle cx="3" cy="3" r="3" transform="translate(380 475) scale(3.26167)"/><circle cx="3" cy="3" r="3" transform="translate(399 475) scale(3.26167)"/><circle cx="3" cy="3" r="3" transform="translate(418 475) scale(3.26167)"/><circle cx="3" cy="3" r="3" transform="translate(456 475) scale(3.26167)"/><circle cx="3" cy="3" r="3" transform="translate(532 475) scale(3.26167)"/><circle cx="3" cy="3" r="3" transform="translate(608 475) scale(3.26167)"/><circle cx="3" cy="3" r="3" transform="translate(627 475) scale(3.26167)"/><circle cx="3" cy="3" r="3" transform="translate(684 475) scale(3.26167)"/><circle cx="3" cy="3" r="3" transform="translate(703 475) scale(3.26167)"/><circle cx="3" cy="3" r="3" transform="translate(779 475) scale(3.26167)"/><circle cx="3" cy="3" r="3" transform="translate(798 475) scale(3.26167)"/><circle cx="3" cy="3" r="3" transform="translate(874 475) scale(3.26167)"/><circle cx="3" cy="3" r="3" transform="translate(950 475) scale(3.26167)"/><circle cx="3" cy="3" r="3" transform="translate(38 494) scale(3.26167)"/><circle cx="3" cy="3" r="3" transform="translate(57 494) scale(3.26167)"/><circle cx="3" cy="3" r="3" transform="translate(76 494) scale(3.26167)"/><circle cx="3" cy="3" r="3" transform="translate(95 494) scale(3.26167)"/><circle cx="3" cy="3" r="3" transform="translate(114 494) scale(3.26167)"/><circle cx="3" cy="3" r="3" transform="translate(152 494) scale(3.26167)"/><circle cx="3" cy="3" r="3" transform="translate(190 494) scale(3.26167)"/><circle cx="3" cy="3" r="3" transform="translate(209 494) scale(3.26167)"/><circle cx="3" cy="3" r="3" transform="translate(228 494) scale(3.26167)"/><circle cx="3" cy="3" r="3" transform="translate(304 494) scale(3.26167)"/><circle cx="3" cy="3" r="3" transform="translate(342 494) scale(3.26167)"/><circle cx="3" cy="3" r="3" transform="translate(361 494) scale(3.26167)"/><circle cx="3" cy="3" r="3" transform="translate(380 494) scale(3.26167)"/><circle cx="3" cy="3" r="3" transform="translate(418 494) scale(3.26167)"/><circle cx="3" cy="3" r="3" transform="translate(437 494) scale(3.26167)"/><circle cx="3" cy="3" r="3" transform="translate(456 494) scale(3.26167)"/><circle cx="3" cy="3" r="3" transform="translate(494 494) scale(3.26167)"/><circle cx="3" cy="3" r="3" transform="translate(532 494) scale(3.26167)"/><circle cx="3" cy="3" r="3" transform="translate(551 494) scale(3.26167)"/><circle cx="3" cy="3" r="3" transform="translate(570 494) scale(3.26167)"/><circle cx="3" cy="3" r="3" transform="translate(684 494) scale(3.26167)"/><circle cx="3" cy="3" r="3" transform="translate(703 494) scale(3.26167)"/><circle cx="3" cy="3" r="3" transform="translate(722 494) scale(3.26167)"/><circle cx="3" cy="3" r="3" transform="translate(760 494) scale(3.26167)"/><circle cx="3" cy="3" r="3" transform="translate(798 494) scale(3.26167)"/><circle cx="3" cy="3" r="3" transform="translate(836 494) scale(3.26167)"/><circle cx="3" cy="3" r="3" transform="translate(874 494) scale(3.26167)"/><circle cx="3" cy="3" r="3" transform="translate(893 494) scale(3.26167)"/><circle cx="3" cy="3" r="3" transform="translate(912 494) scale(3.26167)"/><circle cx="3" cy="3" r="3" transform="translate(57 513) scale(3.26167)"/><circle cx="3" cy="3" r="3" transform="translate(76 513) scale(3.26167)"/><circle cx="3" cy="3" r="3" transform="translate(114 513) scale(3.26167)"/><circle cx="3" cy="3" r="3" transform="translate(190 513) scale(3.26167)"/><circle cx="3" cy="3" r="3" transform="translate(247 513) scale(3.26167)"/><circle cx="3" cy="3" r="3" transform="translate(266 513) scale(3.26167)"/><circle cx="3" cy="3" r="3" transform="translate(304 513) scale(3.26167)"/><circle cx="3" cy="3" r="3" transform="translate(361 513) scale(3.26167)"/><circle cx="3" cy="3" r="3" transform="translate(380 513) scale(3.26167)"/><circle cx="3" cy="3" r="3" transform="translate(399 513) scale(3.26167)"/><circle cx="3" cy="3" r="3" transform="translate(456 513) scale(3.26167)"/><circle cx="3" cy="3" r="3" transform="translate(532 513) scale(3.26167)"/><circle cx="3" cy="3" r="3" transform="translate(551 513) scale(3.26167)"/><circle cx="3" cy="3" r="3" transform="translate(589 513) scale(3.26167)"/><circle cx="3" cy="3" r="3" transform="translate(608 513) scale(3.26167)"/><circle cx="3" cy="3" r="3" transform="translate(627 513) scale(3.26167)"/><circle cx="3" cy="3" r="3" transform="translate(703 513) scale(3.26167)"/><circle cx="3" cy="3" r="3" transform="translate(741 513) scale(3.26167)"/><circle cx="3" cy="3" r="3" transform="translate(779 513) scale(3.26167)"/><circle cx="3" cy="3" r="3" transform="translate(798 513) scale(3.26167)"/><circle cx="3" cy="3" r="3" transform="translate(874 513) scale(3.26167)"/><circle cx="3" cy="3" r="3" transform="translate(912 513) scale(3.26167)"/><circle cx="3" cy="3" r="3" transform="translate(931 513) scale(3.26167)"/><circle cx="3" cy="3" r="3" transform="translate(57 532) scale(3.26167)"/><circle cx="3" cy="3" r="3" transform="translate(114 532) scale(3.26167)"/><circle cx="3" cy="3" r="3" transform="translate(133 532) scale(3.26167)"/><circle cx="3" cy="3" r="3" transform="translate(152 532) scale(3.26167)"/><circle cx="3" cy="3" r="3" transform="translate(171 532) scale(3.26167)"/><circle cx="3" cy="3" r="3" transform="translate(190 532) scale(3.26167)"/><circle cx="3" cy="3" r="3" transform="translate(228 532) scale(3.26167)"/><circle cx="3" cy="3" r="3" transform="translate(247 532) scale(3.26167)"/><circle cx="3" cy="3" r="3" transform="translate(304 532) scale(3.26167)"/><circle cx="3" cy="3" r="3" transform="translate(380 532) scale(3.26167)"/><circle cx="3" cy="3" r="3" transform="translate(399 532) scale(3.26167)"/><circle cx="3" cy="3" r="3" transform="translate(456 532) scale(3.26167)"/><circle cx="3" cy="3" r="3" transform="translate(475 532) scale(3.26167)"/><circle cx="3" cy="3" r="3" transform="translate(494 532) scale(3.26167)"/><circle cx="3" cy="3" r="3" transform="translate(513 532) scale(3.26167)"/><circle cx="3" cy="3" r="3" transform="translate(532 532) scale(3.26167)"/><circle cx="3" cy="3" r="3" transform="translate(551 532) scale(3.26167)"/><circle cx="3" cy="3" r="3" transform="translate(570 532) scale(3.26167)"/><circle cx="3" cy="3" r="3" transform="translate(684 532) scale(3.26167)"/><circle cx="3" cy="3" r="3" transform="translate(722 532) scale(3.26167)"/><circle cx="3" cy="3" r="3" transform="translate(741 532) scale(3.26167)"/><circle cx="3" cy="3" r="3" transform="translate(760 532) scale(3.26167)"/><circle cx="3" cy="3" r="3" transform="translate(798 532) scale(3.26167)"/><circle cx="3" cy="3" r="3" transform="translate(817 532) scale(3.26167)"/><circle cx="3" cy="3" r="3" transform="translate(836 532) scale(3.26167)"/><circle cx="3" cy="3" r="3" transform="translate(855 532) scale(3.26167)"/><circle cx="3" cy="3" r="3" transform="translate(874 532) scale(3.26167)"/><circle cx="3" cy="3" r="3" transform="translate(912 532) scale(3.26167)"/><circle cx="3" cy="3" r="3" transform="translate(931 532) scale(3.26167)"/><circle cx="3" cy="3" r="3" transform="translate(950 532) scale(3.26167)"/><circle cx="3" cy="3" r="3" transform="translate(38 551) scale(3.26167)"/><circle cx="3" cy="3" r="3" transform="translate(209 551) scale(3.26167)"/><circle cx="3" cy="3" r="3" transform="translate(266 551) scale(3.26167)"/><circle cx="3" cy="3" r="3" transform="translate(304 551) scale(3.26167)"/><circle cx="3" cy="3" r="3" transform="translate(323 551) scale(3.26167)"/><circle cx="3" cy="3" r="3" transform="translate(380 551) scale(3.26167)"/><circle cx="3" cy="3" r="3" transform="translate(399 551) scale(3.26167)"/><circle cx="3" cy="3" r="3" transform="translate(437 551) scale(3.26167)"/><circle cx="3" cy="3" r="3" transform="translate(513 551) scale(3.26167)"/><circle cx="3" cy="3" r="3" transform="translate(532 551) scale(3.26167)"/><circle cx="3" cy="3" r="3" transform="translate(570 551) scale(3.26167)"/><circle cx="3" cy="3" r="3" transform="translate(608 551) scale(3.26167)"/><circle cx="3" cy="3" r="3" transform="translate(646 551) scale(3.26167)"/><circle cx="3" cy="3" r="3" transform="translate(665 551) scale(3.26167)"/><circle cx="3" cy="3" r="3" transform="translate(741 551) scale(3.26167)"/><circle cx="3" cy="3" r="3" transform="translate(760 551) scale(3.26167)"/><circle cx="3" cy="3" r="3" transform="translate(798 551) scale(3.26167)"/><circle cx="3" cy="3" r="3" transform="translate(817 551) scale(3.26167)"/><circle cx="3" cy="3" r="3" transform="translate(855 551) scale(3.26167)"/><circle cx="3" cy="3" r="3" transform="translate(931 551) scale(3.26167)"/><circle cx="3" cy="3" r="3" transform="translate(950 551) scale(3.26167)"/><circle cx="3" cy="3" r="3" transform="translate(57 570) scale(3.26167)"/><circle cx="3" cy="3" r="3" transform="translate(114 570) scale(3.26167)"/><circle cx="3" cy="3" r="3" transform="translate(152 570) scale(3.26167)"/><circle cx="3" cy="3" r="3" transform="translate(171 570) scale(3.26167)"/><circle cx="3" cy="3" r="3" transform="translate(190 570) scale(3.26167)"/><circle cx="3" cy="3" r="3" transform="translate(228 570) scale(3.26167)"/><circle cx="3" cy="3" r="3" transform="translate(247 570) scale(3.26167)"/><circle cx="3" cy="3" r="3" transform="translate(285 570) scale(3.26167)"/><circle cx="3" cy="3" r="3" transform="translate(323 570) scale(3.26167)"/><circle cx="3" cy="3" r="3" transform="translate(342 570) scale(3.26167)"/><circle cx="3" cy="3" r="3" transform="translate(361 570) scale(3.26167)"/><circle cx="3" cy="3" r="3" transform="translate(418 570) scale(3.26167)"/><circle cx="3" cy="3" r="3" transform="translate(437 570) scale(3.26167)"/><circle cx="3" cy="3" r="3" transform="translate(456 570) scale(3.26167)"/><circle cx="3" cy="3" r="3" transform="translate(494 570) scale(3.26167)"/><circle cx="3" cy="3" r="3" transform="translate(513 570) scale(3.26167)"/><circle cx="3" cy="3" r="3" transform="translate(551 570) scale(3.26167)"/><circle cx="3" cy="3" r="3" transform="translate(589 570) scale(3.26167)"/><circle cx="3" cy="3" r="3" transform="translate(608 570) scale(3.26167)"/><circle cx="3" cy="3" r="3" transform="translate(627 570) scale(3.26167)"/><circle cx="3" cy="3" r="3" transform="translate(684 570) scale(3.26167)"/><circle cx="3" cy="3" r="3" transform="translate(703 570) scale(3.26167)"/><circle cx="3" cy="3" r="3" transform="translate(722 570) scale(3.26167)"/><circle cx="3" cy="3" r="3" transform="translate(741 570) scale(3.26167)"/><circle cx="3" cy="3" r="3" transform="translate(779 570) scale(3.26167)"/><circle cx="3" cy="3" r="3" transform="translate(798 570) scale(3.26167)"/><circle cx="3" cy="3" r="3" transform="translate(817 570) scale(3.26167)"/><circle cx="3" cy="3" r="3" transform="translate(893 570) scale(3.26167)"/><circle cx="3" cy="3" r="3" transform="translate(912 570) scale(3.26167)"/><circle cx="3" cy="3" r="3" transform="translate(931 570) scale(3.26167)"/><circle cx="3" cy="3" r="3" transform="translate(950 570) scale(3.26167)"/><circle cx="3" cy="3" r="3" transform="translate(38 589) scale(3.26167)"/><circle cx="3" cy="3" r="3" transform="translate(76 589) scale(3.26167)"/><circle cx="3" cy="3" r="3" transform="translate(133 589) scale(3.26167)"/><circle cx="3" cy="3" r="3" transform="translate(190 589) scale(3.26167)"/><circle cx="3" cy="3" r="3" transform="translate(209 589) scale(3.26167)"/><circle cx="3" cy="3" r="3" transform="translate(228 589) scale(3.26167)"/><circle cx="3" cy="3" r="3" transform="translate(266 589) scale(3.26167)"/><circle cx="3" cy="3" r="3" transform="translate(323 589) scale(3.26167)"/><circle cx="3" cy="3" r="3" transform="translate(437 589) scale(3.26167)"/><circle cx="3" cy="3" r="3" transform="translate(475 589) scale(3.26167)"/><circle cx="3" cy="3" r="3" transform="translate(570 589) scale(3.26167)"/><circle cx="3" cy="3" r="3" transform="translate(589 589) scale(3.26167)"/><circle cx="3" cy="3" r="3" transform="translate(703 589) scale(3.26167)"/><circle cx="3" cy="3" r="3" transform="translate(741 589) scale(3.26167)"/><circle cx="3" cy="3" r="3" transform="translate(779 589) scale(3.26167)"/><circle cx="3" cy="3" r="3" transform="translate(798 589) scale(3.26167)"/><circle cx="3" cy="3" r="3" transform="translate(817 589) scale(3.26167)"/><circle cx="3" cy="3" r="3" transform="translate(836 589) scale(3.26167)"/><circle cx="3" cy="3" r="3" transform="translate(855 589) scale(3.26167)"/><circle cx="3" cy="3" r="3" transform="translate(874 589) scale(3.26167)"/><circle cx="3" cy="3" r="3" transform="translate(912 589) scale(3.26167)"/><circle cx="3" cy="3" r="3" transform="translate(57 608) scale(3.26167)"/><circle cx="3" cy="3" r="3" transform="translate(152 608) scale(3.26167)"/><circle cx="3" cy="3" r="3" transform="translate(190 608) scale(3.26167)"/><circle cx="3" cy="3" r="3" transform="translate(228 608) scale(3.26167)"/><circle cx="3" cy="3" r="3" transform="translate(247 608) scale(3.26167)"/><circle cx="3" cy="3" r="3" transform="translate(285 608) scale(3.26167)"/><circle cx="3" cy="3" r="3" transform="translate(323 608) scale(3.26167)"/><circle cx="3" cy="3" r="3" transform="translate(456 608) scale(3.26167)"/><circle cx="3" cy="3" r="3" transform="translate(475 608) scale(3.26167)"/><circle cx="3" cy="3" r="3" transform="translate(513 608) scale(3.26167)"/><circle cx="3" cy="3" r="3" transform="translate(551 608) scale(3.26167)"/><circle cx="3" cy="3" r="3" transform="translate(627 608) scale(3.26167)"/><circle cx="3" cy="3" r="3" transform="translate(684 608) scale(3.26167)"/><circle cx="3" cy="3" r="3" transform="translate(703 608) scale(3.26167)"/><circle cx="3" cy="3" r="3" transform="translate(722 608) scale(3.26167)"/><circle cx="3" cy="3" r="3" transform="translate(760 608) scale(3.26167)"/><circle cx="3" cy="3" r="3" transform="translate(779 608) scale(3.26167)"/><circle cx="3" cy="3" r="3" transform="translate(798 608) scale(3.26167)"/><circle cx="3" cy="3" r="3" transform="translate(836 608) scale(3.26167)"/><circle cx="3" cy="3" r="3" transform="translate(874 608) scale(3.26167)"/><circle cx="3" cy="3" r="3" transform="translate(893 608) scale(3.26167)"/><circle cx="3" cy="3" r="3" transform="translate(912 608) scale(3.26167)"/><circle cx="3" cy="3" r="3" transform="translate(931 608) scale(3.26167)"/><circle cx="3" cy="3" r="3" transform="translate(950 608) scale(3.26167)"/><circle cx="3" cy="3" r="3" transform="translate(38 627) scale(3.26167)"/><circle cx="3" cy="3" r="3" transform="translate(57 627) scale(3.26167)"/><circle cx="3" cy="3" r="3" transform="translate(114 627) scale(3.26167)"/><circle cx="3" cy="3" r="3" transform="translate(133 627) scale(3.26167)"/><circle cx="3" cy="3" r="3" transform="translate(171 627) scale(3.26167)"/><circle cx="3" cy="3" r="3" transform="translate(228 627) scale(3.26167)"/><circle cx="3" cy="3" r="3" transform="translate(266 627) scale(3.26167)"/><circle cx="3" cy="3" r="3" transform="translate(285 627) scale(3.26167)"/><circle cx="3" cy="3" r="3" transform="translate(304 627) scale(3.26167)"/><circle cx="3" cy="3" r="3" transform="translate(323 627) scale(3.26167)"/><circle cx="3" cy="3" r="3" transform="translate(380 627) scale(3.26167)"/><circle cx="3" cy="3" r="3" transform="translate(399 627) scale(3.26167)"/><circle cx="3" cy="3" r="3" transform="translate(437 627) scale(3.26167)"/><circle cx="3" cy="3" r="3" transform="translate(532 627) scale(3.26167)"/><circle cx="3" cy="3" r="3" transform="translate(551 627) scale(3.26167)"/><circle cx="3" cy="3" r="3" transform="translate(570 627) scale(3.26167)"/><circle cx="3" cy="3" r="3" transform="translate(589 627) scale(3.26167)"/><circle cx="3" cy="3" r="3" transform="translate(608 627) scale(3.26167)"/><circle cx="3" cy="3" r="3" transform="translate(722 627) scale(3.26167)"/><circle cx="3" cy="3" r="3" transform="translate(741 627) scale(3.26167)"/><circle cx="3" cy="3" r="3" transform="translate(798 627) scale(3.26167)"/><circle cx="3" cy="3" r="3" transform="translate(855 627) scale(3.26167)"/><circle cx="3" cy="3" r="3" transform="translate(874 627) scale(3.26167)"/><circle cx="3" cy="3" r="3" transform="translate(893 627) scale(3.26167)"/><circle cx="3" cy="3" r="3" transform="translate(931 627) scale(3.26167)"/><circle cx="3" cy="3" r="3" transform="translate(57 646) scale(3.26167)"/><circle cx="3" cy="3" r="3" transform="translate(114 646) scale(3.26167)"/><circle cx="3" cy="3" r="3" transform="translate(152 646) scale(3.26167)"/><circle cx="3" cy="3" r="3" transform="translate(171 646) scale(3.26167)"/><circle cx="3" cy="3" r="3" transform="translate(190 646) scale(3.26167)"/><circle cx="3" cy="3" r="3" transform="translate(228 646) scale(3.26167)"/><circle cx="3" cy="3" r="3" transform="translate(266 646) scale(3.26167)"/><circle cx="3" cy="3" r="3" transform="translate(380 646) scale(3.26167)"/><circle cx="3" cy="3" r="3" transform="translate(399 646) scale(3.26167)"/><circle cx="3" cy="3" r="3" transform="translate(418 646) scale(3.26167)"/><circle cx="3" cy="3" r="3" transform="translate(513 646) scale(3.26167)"/><circle cx="3" cy="3" r="3" transform="translate(608 646) scale(3.26167)"/><circle cx="3" cy="3" r="3" transform="translate(627 646) scale(3.26167)"/><circle cx="3" cy="3" r="3" transform="translate(646 646) scale(3.26167)"/><circle cx="3" cy="3" r="3" transform="translate(665 646) scale(3.26167)"/><circle cx="3" cy="3" r="3" transform="translate(703 646) scale(3.26167)"/><circle cx="3" cy="3" r="3" transform="translate(741 646) scale(3.26167)"/><circle cx="3" cy="3" r="3" transform="translate(779 646) scale(3.26167)"/><circle cx="3" cy="3" r="3" transform="translate(817 646) scale(3.26167)"/><circle cx="3" cy="3" r="3" transform="translate(874 646) scale(3.26167)"/><circle cx="3" cy="3" r="3" transform="translate(893 646) scale(3.26167)"/><circle cx="3" cy="3" r="3" transform="translate(912 646) scale(3.26167)"/><circle cx="3" cy="3" r="3" transform="translate(931 646) scale(3.26167)"/><circle cx="3" cy="3" r="3" transform="translate(38 665) scale(3.26167)"/><circle cx="3" cy="3" r="3" transform="translate(133 665) scale(3.26167)"/><circle cx="3" cy="3" r="3" transform="translate(190 665) scale(3.26167)"/><circle cx="3" cy="3" r="3" transform="translate(228 665) scale(3.26167)"/><circle cx="3" cy="3" r="3" transform="translate(247 665) scale(3.26167)"/><circle cx="3" cy="3" r="3" transform="translate(285 665) scale(3.26167)"/><circle cx="3" cy="3" r="3" transform="translate(323 665) scale(3.26167)"/><circle cx="3" cy="3" r="3" transform="translate(361 665) scale(3.26167)"/><circle cx="3" cy="3" r="3" transform="translate(399 665) scale(3.26167)"/><circle cx="3" cy="3" r="3" transform="translate(437 665) scale(3.26167)"/><circle cx="3" cy="3" r="3" transform="translate(475 665) scale(3.26167)"/><circle cx="3" cy="3" r="3" transform="translate(494 665) scale(3.26167)"/><circle cx="3" cy="3" r="3" transform="translate(513 665) scale(3.26167)"/><circle cx="3" cy="3" r="3" transform="translate(532 665) scale(3.26167)"/><circle cx="3" cy="3" r="3" transform="translate(589 665) scale(3.26167)"/><circle cx="3" cy="3" r="3" transform="translate(608 665) scale(3.26167)"/><circle cx="3" cy="3" r="3" transform="translate(646 665) scale(3.26167)"/><circle cx="3" cy="3" r="3" transform="translate(741 665) scale(3.26167)"/><circle cx="3" cy="3" r="3" transform="translate(836 665) scale(3.26167)"/><circle cx="3" cy="3" r="3" transform="translate(855 665) scale(3.26167)"/><circle cx="3" cy="3" r="3" transform="translate(912 665) scale(3.26167)"/><circle cx="3" cy="3" r="3" transform="translate(38 684) scale(3.26167)"/><circle cx="3" cy="3" r="3" transform="translate(133 684) scale(3.26167)"/><circle cx="3" cy="3" r="3" transform="translate(152 684) scale(3.26167)"/><circle cx="3" cy="3" r="3" transform="translate(228 684) scale(3.26167)"/><circle cx="3" cy="3" r="3" transform="translate(247 684) scale(3.26167)"/><circle cx="3" cy="3" r="3" transform="translate(266 684) scale(3.26167)"/><circle cx="3" cy="3" r="3" transform="translate(342 684) scale(3.26167)"/><circle cx="3" cy="3" r="3" transform="translate(361 684) scale(3.26167)"/><circle cx="3" cy="3" r="3" transform="translate(380 684) scale(3.26167)"/><circle cx="3" cy="3" r="3" transform="translate(437 684) scale(3.26167)"/><circle cx="3" cy="3" r="3" transform="translate(494 684) scale(3.26167)"/><circle cx="3" cy="3" r="3" transform="translate(513 684) scale(3.26167)"/><circle cx="3" cy="3" r="3" transform="translate(627 684) scale(3.26167)"/><circle cx="3" cy="3" r="3" transform="translate(646 684) scale(3.26167)"/><circle cx="3" cy="3" r="3" transform="translate(665 684) scale(3.26167)"/><circle cx="3" cy="3" r="3" transform="translate(684 684) scale(3.26167)"/><circle cx="3" cy="3" r="3" transform="translate(703 684) scale(3.26167)"/><circle cx="3" cy="3" r="3" transform="translate(760 684) scale(3.26167)"/><circle cx="3" cy="3" r="3" transform="translate(817 684) scale(3.26167)"/><circle cx="3" cy="3" r="3" transform="translate(836 684) scale(3.26167)"/><circle cx="3" cy="3" r="3" transform="translate(874 684) scale(3.26167)"/><circle cx="3" cy="3" r="3" transform="translate(912 684) scale(3.26167)"/><circle cx="3" cy="3" r="3" transform="translate(931 684) scale(3.26167)"/><circle cx="3" cy="3" r="3" transform="translate(950 684) scale(3.26167)"/><circle cx="3" cy="3" r="3" transform="translate(95 703) scale(3.26167)"/><circle cx="3" cy="3" r="3" transform="translate(114 703) scale(3.26167)"/><circle cx="3" cy="3" r="3" transform="translate(171 703) scale(3.26167)"/><circle cx="3" cy="3" r="3" transform="translate(247 703) scale(3.26167)"/><circle cx="3" cy="3" r="3" transform="translate(304 703) scale(3.26167)"/><circle cx="3" cy="3" r="3" transform="translate(323 703) scale(3.26167)"/><circle cx="3" cy="3" r="3" transform="translate(342 703) scale(3.26167)"/><circle cx="3" cy="3" r="3" transform="translate(380 703) scale(3.26167)"/><circle cx="3" cy="3" r="3" transform="translate(399 703) scale(3.26167)"/><circle cx="3" cy="3" r="3" transform="translate(418 703) scale(3.26167)"/><circle cx="3" cy="3" r="3" transform="translate(437 703) scale(3.26167)"/><circle cx="3" cy="3" r="3" transform="translate(456 703) scale(3.26167)"/><circle cx="3" cy="3" r="3" transform="translate(475 703) scale(3.26167)"/><circle cx="3" cy="3" r="3" transform="translate(513 703) scale(3.26167)"/><circle cx="3" cy="3" r="3" transform="translate(551 703) scale(3.26167)"/><circle cx="3" cy="3" r="3" transform="translate(627 703) scale(3.26167)"/><circle cx="3" cy="3" r="3" transform="translate(646 703) scale(3.26167)"/><circle cx="3" cy="3" r="3" transform="translate(684 703) scale(3.26167)"/><circle cx="3" cy="3" r="3" transform="translate(703 703) scale(3.26167)"/><circle cx="3" cy="3" r="3" transform="translate(798 703) scale(3.26167)"/><circle cx="3" cy="3" r="3" transform="translate(57 722) scale(3.26167)"/><circle cx="3" cy="3" r="3" transform="translate(76 722) scale(3.26167)"/><circle cx="3" cy="3" r="3" transform="translate(95 722) scale(3.26167)"/><circle cx="3" cy="3" r="3" transform="translate(114 722) scale(3.26167)"/><circle cx="3" cy="3" r="3" transform="translate(152 722) scale(3.26167)"/><circle cx="3" cy="3" r="3" transform="translate(190 722) scale(3.26167)"/><circle cx="3" cy="3" r="3" transform="translate(247 722) scale(3.26167)"/><circle cx="3" cy="3" r="3" transform="translate(266 722) scale(3.26167)"/><circle cx="3" cy="3" r="3" transform="translate(323 722) scale(3.26167)"/><circle cx="3" cy="3" r="3" transform="translate(361 722) scale(3.26167)"/><circle cx="3" cy="3" r="3" transform="translate(380 722) scale(3.26167)"/><circle cx="3" cy="3" r="3" transform="translate(399 722) scale(3.26167)"/><circle cx="3" cy="3" r="3" transform="translate(418 722) scale(3.26167)"/><circle cx="3" cy="3" r="3" transform="translate(437 722) scale(3.26167)"/><circle cx="3" cy="3" r="3" transform="translate(475 722) scale(3.26167)"/><circle cx="3" cy="3" r="3" transform="translate(532 722) scale(3.26167)"/><circle cx="3" cy="3" r="3" transform="translate(589 722) scale(3.26167)"/><circle cx="3" cy="3" r="3" transform="translate(608 722) scale(3.26167)"/><circle cx="3" cy="3" r="3" transform="translate(627 722) scale(3.26167)"/><circle cx="3" cy="3" r="3" transform="translate(665 722) scale(3.26167)"/><circle cx="3" cy="3" r="3" transform="translate(703 722) scale(3.26167)"/><circle cx="3" cy="3" r="3" transform="translate(722 722) scale(3.26167)"/><circle cx="3" cy="3" r="3" transform="translate(741 722) scale(3.26167)"/><circle cx="3" cy="3" r="3" transform="translate(760 722) scale(3.26167)"/><circle cx="3" cy="3" r="3" transform="translate(779 722) scale(3.26167)"/><circle cx="3" cy="3" r="3" transform="translate(798 722) scale(3.26167)"/><circle cx="3" cy="3" r="3" transform="translate(836 722) scale(3.26167)"/><circle cx="3" cy="3" r="3" transform="translate(855 722) scale(3.26167)"/><circle cx="3" cy="3" r="3" transform="translate(874 722) scale(3.26167)"/><circle cx="3" cy="3" r="3" transform="translate(912 722) scale(3.26167)"/><circle cx="3" cy="3" r="3" transform="translate(950 722) scale(3.26167)"/><circle cx="3" cy="3" r="3" transform="translate(76 741) scale(3.26167)"/><circle cx="3" cy="3" r="3" transform="translate(133 741) scale(3.26167)"/><circle cx="3" cy="3" r="3" transform="translate(171 741) scale(3.26167)"/><circle cx="3" cy="3" r="3" transform="translate(247 741) scale(3.26167)"/><circle cx="3" cy="3" r="3" transform="translate(304 741) scale(3.26167)"/><circle cx="3" cy="3" r="3" transform="translate(361 741) scale(3.26167)"/><circle cx="3" cy="3" r="3" transform="translate(399 741) scale(3.26167)"/><circle cx="3" cy="3" r="3" transform="translate(437 741) scale(3.26167)"/><circle cx="3" cy="3" r="3" transform="translate(456 741) scale(3.26167)"/><circle cx="3" cy="3" r="3" transform="translate(513 741) scale(3.26167)"/><circle cx="3" cy="3" r="3" transform="translate(532 741) scale(3.26167)"/><circle cx="3" cy="3" r="3" transform="translate(589 741) scale(3.26167)"/><circle cx="3" cy="3" r="3" transform="translate(627 741) scale(3.26167)"/><circle cx="3" cy="3" r="3" transform="translate(703 741) scale(3.26167)"/><circle cx="3" cy="3" r="3" transform="translate(722 741) scale(3.26167)"/><circle cx="3" cy="3" r="3" transform="translate(741 741) scale(3.26167)"/><circle cx="3" cy="3" r="3" transform="translate(798 741) scale(3.26167)"/><circle cx="3" cy="3" r="3" transform="translate(855 741) scale(3.26167)"/><circle cx="3" cy="3" r="3" transform="translate(931 741) scale(3.26167)"/><circle cx="3" cy="3" r="3" transform="translate(57 760) scale(3.26167)"/><circle cx="3" cy="3" r="3" transform="translate(133 760) scale(3.26167)"/><circle cx="3" cy="3" r="3" transform="translate(152 760) scale(3.26167)"/><circle cx="3" cy="3" r="3" transform="translate(209 760) scale(3.26167)"/><circle cx="3" cy="3" r="3" transform="translate(247 760) scale(3.26167)"/><circle cx="3" cy="3" r="3" transform="translate(285 760) scale(3.26167)"/><circle cx="3" cy="3" r="3" transform="translate(342 760) scale(3.26167)"/><circle cx="3" cy="3" r="3" transform="translate(361 760) scale(3.26167)"/><circle cx="3" cy="3" r="3" transform="translate(399 760) scale(3.26167)"/><circle cx="3" cy="3" r="3" transform="translate(437 760) scale(3.26167)"/><circle cx="3" cy="3" r="3" transform="translate(456 760) scale(3.26167)"/><circle cx="3" cy="3" r="3" transform="translate(475 760) scale(3.26167)"/><circle cx="3" cy="3" r="3" transform="translate(532 760) scale(3.26167)"/><circle cx="3" cy="3" r="3" transform="translate(589 760) scale(3.26167)"/><circle cx="3" cy="3" r="3" transform="translate(665 760) scale(3.26167)"/><circle cx="3" cy="3" r="3" transform="translate(684 760) scale(3.26167)"/><circle cx="3" cy="3" r="3" transform="translate(703 760) scale(3.26167)"/><circle cx="3" cy="3" r="3" transform="translate(722 760) scale(3.26167)"/><circle cx="3" cy="3" r="3" transform="translate(760 760) scale(3.26167)"/><circle cx="3" cy="3" r="3" transform="translate(798 760) scale(3.26167)"/><circle cx="3" cy="3" r="3" transform="translate(817 760) scale(3.26167)"/><circle cx="3" cy="3" r="3" transform="translate(836 760) scale(3.26167)"/><circle cx="3" cy="3" r="3" transform="translate(855 760) scale(3.26167)"/><circle cx="3" cy="3" r="3" transform="translate(893 760) scale(3.26167)"/><circle cx="3" cy="3" r="3" transform="translate(931 760) scale(3.26167)"/><circle cx="3" cy="3" r="3" transform="translate(950 760) scale(3.26167)"/><circle cx="3" cy="3" r="3" transform="translate(57 779) scale(3.26167)"/><circle cx="3" cy="3" r="3" transform="translate(76 779) scale(3.26167)"/><circle cx="3" cy="3" r="3" transform="translate(95 779) scale(3.26167)"/><circle cx="3" cy="3" r="3" transform="translate(171 779) scale(3.26167)"/><circle cx="3" cy="3" r="3" transform="translate(247 779) scale(3.26167)"/><circle cx="3" cy="3" r="3" transform="translate(266 779) scale(3.26167)"/><circle cx="3" cy="3" r="3" transform="translate(285 779) scale(3.26167)"/><circle cx="3" cy="3" r="3" transform="translate(304 779) scale(3.26167)"/><circle cx="3" cy="3" r="3" transform="translate(323 779) scale(3.26167)"/><circle cx="3" cy="3" r="3" transform="translate(361 779) scale(3.26167)"/><circle cx="3" cy="3" r="3" transform="translate(418 779) scale(3.26167)"/><circle cx="3" cy="3" r="3" transform="translate(494 779) scale(3.26167)"/><circle cx="3" cy="3" r="3" transform="translate(513 779) scale(3.26167)"/><circle cx="3" cy="3" r="3" transform="translate(589 779) scale(3.26167)"/><circle cx="3" cy="3" r="3" transform="translate(646 779) scale(3.26167)"/><circle cx="3" cy="3" r="3" transform="translate(665 779) scale(3.26167)"/><circle cx="3" cy="3" r="3" transform="translate(703 779) scale(3.26167)"/><circle cx="3" cy="3" r="3" transform="translate(855 779) scale(3.26167)"/><circle cx="3" cy="3" r="3" transform="translate(874 779) scale(3.26167)"/><circle cx="3" cy="3" r="3" transform="translate(893 779) scale(3.26167)"/><circle cx="3" cy="3" r="3" transform="translate(950 779) scale(3.26167)"/><circle cx="3" cy="3" r="3" transform="translate(38 798) scale(3.26167)"/><circle cx="3" cy="3" r="3" transform="translate(57 798) scale(3.26167)"/><circle cx="3" cy="3" r="3" transform="translate(76 798) scale(3.26167)"/><circle cx="3" cy="3" r="3" transform="translate(152 798) scale(3.26167)"/><circle cx="3" cy="3" r="3" transform="translate(171 798) scale(3.26167)"/><circle cx="3" cy="3" r="3" transform="translate(209 798) scale(3.26167)"/><circle cx="3" cy="3" r="3" transform="translate(285 798) scale(3.26167)"/><circle cx="3" cy="3" r="3" transform="translate(304 798) scale(3.26167)"/><circle cx="3" cy="3" r="3" transform="translate(437 798) scale(3.26167)"/><circle cx="3" cy="3" r="3" transform="translate(456 798) scale(3.26167)"/><circle cx="3" cy="3" r="3" transform="translate(475 798) scale(3.26167)"/><circle cx="3" cy="3" r="3" transform="translate(494 798) scale(3.26167)"/><circle cx="3" cy="3" r="3" transform="translate(513 798) scale(3.26167)"/><circle cx="3" cy="3" r="3" transform="translate(532 798) scale(3.26167)"/><circle cx="3" cy="3" r="3" transform="translate(589 798) scale(3.26167)"/><circle cx="3" cy="3" r="3" transform="translate(627 798) scale(3.26167)"/><circle cx="3" cy="3" r="3" transform="translate(703 798) scale(3.26167)"/><circle cx="3" cy="3" r="3" transform="translate(722 798) scale(3.26167)"/><circle cx="3" cy="3" r="3" transform="translate(741 798) scale(3.26167)"/><circle cx="3" cy="3" r="3" transform="translate(779 798) scale(3.26167)"/><circle cx="3" cy="3" r="3" transform="translate(798 798) scale(3.26167)"/><circle cx="3" cy="3" r="3" transform="translate(817 798) scale(3.26167)"/><circle cx="3" cy="3" r="3" transform="translate(836 798) scale(3.26167)"/><circle cx="3" cy="3" r="3" transform="translate(855 798) scale(3.26167)"/><circle cx="3" cy="3" r="3" transform="translate(874 798) scale(3.26167)"/><circle cx="3" cy="3" r="3" transform="translate(893 798) scale(3.26167)"/><circle cx="3" cy="3" r="3" transform="translate(190 817) scale(3.26167)"/><circle cx="3" cy="3" r="3" transform="translate(209 817) scale(3.26167)"/><circle cx="3" cy="3" r="3" transform="translate(228 817) scale(3.26167)"/><circle cx="3" cy="3" r="3" transform="translate(285 817) scale(3.26167)"/><circle cx="3" cy="3" r="3" transform="translate(323 817) scale(3.26167)"/><circle cx="3" cy="3" r="3" transform="translate(342 817) scale(3.26167)"/><circle cx="3" cy="3" r="3" transform="translate(399 817) scale(3.26167)"/><circle cx="3" cy="3" r="3" transform="translate(437 817) scale(3.26167)"/><circle cx="3" cy="3" r="3" transform="translate(456 817) scale(3.26167)"/><circle cx="3" cy="3" r="3" transform="translate(532 817) scale(3.26167)"/><circle cx="3" cy="3" r="3" transform="translate(570 817) scale(3.26167)"/><circle cx="3" cy="3" r="3" transform="translate(627 817) scale(3.26167)"/><circle cx="3" cy="3" r="3" transform="translate(665 817) scale(3.26167)"/><circle cx="3" cy="3" r="3" transform="translate(798 817) scale(3.26167)"/><circle cx="3" cy="3" r="3" transform="translate(874 817) scale(3.26167)"/><circle cx="3" cy="3" r="3" transform="translate(209 836) scale(3.26167)"/><circle cx="3" cy="3" r="3" transform="translate(266 836) scale(3.26167)"/><circle cx="3" cy="3" r="3" transform="translate(285 836) scale(3.26167)"/><circle cx="3" cy="3" r="3" transform="translate(304 836) scale(3.26167)"/><circle cx="3" cy="3" r="3" transform="translate(361 836) scale(3.26167)"/><circle cx="3" cy="3" r="3" transform="translate(380 836) scale(3.26167)"/><circle cx="3" cy="3" r="3" transform="translate(399 836) scale(3.26167)"/><circle cx="3" cy="3" r="3" transform="translate(456 836) scale(3.26167)"/><circle cx="3" cy="3" r="3" transform="translate(494 836) scale(3.26167)"/><circle cx="3" cy="3" r="3" transform="translate(532 836) scale(3.26167)"/><circle cx="3" cy="3" r="3" transform="translate(551 836) scale(3.26167)"/><circle cx="3" cy="3" r="3" transform="translate(570 836) scale(3.26167)"/><circle cx="3" cy="3" r="3" transform="translate(646 836) scale(3.26167)"/><circle cx="3" cy="3" r="3" transform="translate(703 836) scale(3.26167)"/><circle cx="3" cy="3" r="3" transform="translate(741 836) scale(3.26167)"/><circle cx="3" cy="3" r="3" transform="translate(798 836) scale(3.26167)"/><circle cx="3" cy="3" r="3" transform="translate(836 836) scale(3.26167)"/><circle cx="3" cy="3" r="3" transform="translate(874 836) scale(3.26167)"/><circle cx="3" cy="3" r="3" transform="translate(893 836) scale(3.26167)"/><circle cx="3" cy="3" r="3" transform="translate(931 836) scale(3.26167)"/><circle cx="3" cy="3" r="3" transform="translate(950 836) scale(3.26167)"/><circle cx="3" cy="3" r="3" transform="translate(209 855) scale(3.26167)"/><circle cx="3" cy="3" r="3" transform="translate(266 855) scale(3.26167)"/><circle cx="3" cy="3" r="3" transform="translate(285 855) scale(3.26167)"/><circle cx="3" cy="3" r="3" transform="translate(304 855) scale(3.26167)"/><circle cx="3" cy="3" r="3" transform="translate(380 855) scale(3.26167)"/><circle cx="3" cy="3" r="3" transform="translate(437 855) scale(3.26167)"/><circle cx="3" cy="3" r="3" transform="translate(456 855) scale(3.26167)"/><circle cx="3" cy="3" r="3" transform="translate(532 855) scale(3.26167)"/><circle cx="3" cy="3" r="3" transform="translate(551 855) scale(3.26167)"/><circle cx="3" cy="3" r="3" transform="translate(570 855) scale(3.26167)"/><circle cx="3" cy="3" r="3" transform="translate(608 855) scale(3.26167)"/><circle cx="3" cy="3" r="3" transform="translate(627 855) scale(3.26167)"/><circle cx="3" cy="3" r="3" transform="translate(646 855) scale(3.26167)"/><circle cx="3" cy="3" r="3" transform="translate(665 855) scale(3.26167)"/><circle cx="3" cy="3" r="3" transform="translate(684 855) scale(3.26167)"/><circle cx="3" cy="3" r="3" transform="translate(741 855) scale(3.26167)"/><circle cx="3" cy="3" r="3" transform="translate(760 855) scale(3.26167)"/><circle cx="3" cy="3" r="3" transform="translate(779 855) scale(3.26167)"/><circle cx="3" cy="3" r="3" transform="translate(798 855) scale(3.26167)"/><circle cx="3" cy="3" r="3" transform="translate(874 855) scale(3.26167)"/><circle cx="3" cy="3" r="3" transform="translate(931 855) scale(3.26167)"/><circle cx="3" cy="3" r="3" transform="translate(950 855) scale(3.26167)"/><circle cx="3" cy="3" r="3" transform="translate(190 874) scale(3.26167)"/><circle cx="3" cy="3" r="3" transform="translate(209 874) scale(3.26167)"/><circle cx="3" cy="3" r="3" transform="translate(304 874) scale(3.26167)"/><circle cx="3" cy="3" r="3" transform="translate(323 874) scale(3.26167)"/><circle cx="3" cy="3" r="3" transform="translate(361 874) scale(3.26167)"/><circle cx="3" cy="3" r="3" transform="translate(380 874) scale(3.26167)"/><circle cx="3" cy="3" r="3" transform="translate(399 874) scale(3.26167)"/><circle cx="3" cy="3" r="3" transform="translate(456 874) scale(3.26167)"/><circle cx="3" cy="3" r="3" transform="translate(475 874) scale(3.26167)"/><circle cx="3" cy="3" r="3" transform="translate(494 874) scale(3.26167)"/><circle cx="3" cy="3" r="3" transform="translate(513 874) scale(3.26167)"/><circle cx="3" cy="3" r="3" transform="translate(532 874) scale(3.26167)"/><circle cx="3" cy="3" r="3" transform="translate(589 874) scale(3.26167)"/><circle cx="3" cy="3" r="3" transform="translate(608 874) scale(3.26167)"/><circle cx="3" cy="3" r="3" transform="translate(627 874) scale(3.26167)"/><circle cx="3" cy="3" r="3" transform="translate(665 874) scale(3.26167)"/><circle cx="3" cy="3" r="3" transform="translate(703 874) scale(3.26167)"/><circle cx="3" cy="3" r="3" transform="translate(722 874) scale(3.26167)"/><circle cx="3" cy="3" r="3" transform="translate(741 874) scale(3.26167)"/><circle cx="3" cy="3" r="3" transform="translate(760 874) scale(3.26167)"/><circle cx="3" cy="3" r="3" transform="translate(779 874) scale(3.26167)"/><circle cx="3" cy="3" r="3" transform="translate(798 874) scale(3.26167)"/><circle cx="3" cy="3" r="3" transform="translate(817 874) scale(3.26167)"/><circle cx="3" cy="3" r="3" transform="translate(836 874) scale(3.26167)"/><circle cx="3" cy="3" r="3" transform="translate(855 874) scale(3.26167)"/><circle cx="3" cy="3" r="3" transform="translate(874 874) scale(3.26167)"/><circle cx="3" cy="3" r="3" transform="translate(912 874) scale(3.26167)"/><circle cx="3" cy="3" r="3" transform="translate(931 874) scale(3.26167)"/><circle cx="3" cy="3" r="3" transform="translate(950 874) scale(3.26167)"/><circle cx="3" cy="3" r="3" transform="translate(190 893) scale(3.26167)"/><circle cx="3" cy="3" r="3" transform="translate(209 893) scale(3.26167)"/><circle cx="3" cy="3" r="3" transform="translate(266 893) scale(3.26167)"/><circle cx="3" cy="3" r="3" transform="translate(285 893) scale(3.26167)"/><circle cx="3" cy="3" r="3" transform="translate(342 893) scale(3.26167)"/><circle cx="3" cy="3" r="3" transform="translate(361 893) scale(3.26167)"/><circle cx="3" cy="3" r="3" transform="translate(380 893) scale(3.26167)"/><circle cx="3" cy="3" r="3" transform="translate(399 893) scale(3.26167)"/><circle cx="3" cy="3" r="3" transform="translate(456 893) scale(3.26167)"/><circle cx="3" cy="3" r="3" transform="translate(475 893) scale(3.26167)"/><circle cx="3" cy="3" r="3" transform="translate(513 893) scale(3.26167)"/><circle cx="3" cy="3" r="3" transform="translate(570 893) scale(3.26167)"/><circle cx="3" cy="3" r="3" transform="translate(589 893) scale(3.26167)"/><circle cx="3" cy="3" r="3" transform="translate(608 893) scale(3.26167)"/><circle cx="3" cy="3" r="3" transform="translate(703 893) scale(3.26167)"/><circle cx="3" cy="3" r="3" transform="translate(722 893) scale(3.26167)"/><circle cx="3" cy="3" r="3" transform="translate(741 893) scale(3.26167)"/><circle cx="3" cy="3" r="3" transform="translate(779 893) scale(3.26167)"/><circle cx="3" cy="3" r="3" transform="translate(817 893) scale(3.26167)"/><circle cx="3" cy="3" r="3" transform="translate(855 893) scale(3.26167)"/><circle cx="3" cy="3" r="3" transform="translate(874 893) scale(3.26167)"/><circle cx="3" cy="3" r="3" transform="translate(893 893) scale(3.26167)"/><circle cx="3" cy="3" r="3" transform="translate(950 893) scale(3.26167)"/><circle cx="3" cy="3" r="3" transform="translate(190 912) scale(3.26167)"/><circle cx="3" cy="3" r="3" transform="translate(247 912) scale(3.26167)"/><circle cx="3" cy="3" r="3" transform="translate(266 912) scale(3.26167)"/><circle cx="3" cy="3" r="3" transform="translate(304 912) scale(3.26167)"/><circle cx="3" cy="3" r="3" transform="translate(342 912) scale(3.26167)"/><circle cx="3" cy="3" r="3" transform="translate(380 912) scale(3.26167)"/><circle cx="3" cy="3" r="3" transform="translate(456 912) scale(3.26167)"/><circle cx="3" cy="3" r="3" transform="translate(475 912) scale(3.26167)"/><circle cx="3" cy="3" r="3" transform="translate(494 912) scale(3.26167)"/><circle cx="3" cy="3" r="3" transform="translate(532 912) scale(3.26167)"/><circle cx="3" cy="3" r="3" transform="translate(589 912) scale(3.26167)"/><circle cx="3" cy="3" r="3" transform="translate(627 912) scale(3.26167)"/><circle cx="3" cy="3" r="3" transform="translate(684 912) scale(3.26167)"/><circle cx="3" cy="3" r="3" transform="translate(703 912) scale(3.26167)"/><circle cx="3" cy="3" r="3" transform="translate(722 912) scale(3.26167)"/><circle cx="3" cy="3" r="3" transform="translate(760 912) scale(3.26167)"/><circle cx="3" cy="3" r="3" transform="translate(798 912) scale(3.26167)"/><circle cx="3" cy="3" r="3" transform="translate(836 912) scale(3.26167)"/><circle cx="3" cy="3" r="3" transform="translate(855 912) scale(3.26167)"/><circle cx="3" cy="3" r="3" transform="translate(912 912) scale(3.26167)"/><circle cx="3" cy="3" r="3" transform="translate(931 912) scale(3.26167)"/><circle cx="3" cy="3" r="3" transform="translate(950 912) scale(3.26167)"/><circle cx="3" cy="3" r="3" transform="translate(209 931) scale(3.26167)"/><circle cx="3" cy="3" r="3" transform="translate(247 931) scale(3.26167)"/><circle cx="3" cy="3" r="3" transform="translate(285 931) scale(3.26167)"/><circle cx="3" cy="3" r="3" transform="translate(304 931) scale(3.26167)"/><circle cx="3" cy="3" r="3" transform="translate(323 931) scale(3.26167)"/><circle cx="3" cy="3" r="3" transform="translate(361 931) scale(3.26167)"/><circle cx="3" cy="3" r="3" transform="translate(456 931) scale(3.26167)"/><circle cx="3" cy="3" r="3" transform="translate(494 931) scale(3.26167)"/><circle cx="3" cy="3" r="3" transform="translate(513 931) scale(3.26167)"/><circle cx="3" cy="3" r="3" transform="translate(532 931) scale(3.26167)"/><circle cx="3" cy="3" r="3" transform="translate(570 931) scale(3.26167)"/><circle cx="3" cy="3" r="3" transform="translate(589 931) scale(3.26167)"/><circle cx="3" cy="3" r="3" transform="translate(608 931) scale(3.26167)"/><circle cx="3" cy="3" r="3" transform="translate(646 931) scale(3.26167)"/><circle cx="3" cy="3" r="3" transform="translate(665 931) scale(3.26167)"/><circle cx="3" cy="3" r="3" transform="translate(703 931) scale(3.26167)"/><circle cx="3" cy="3" r="3" transform="translate(760 931) scale(3.26167)"/><circle cx="3" cy="3" r="3" transform="translate(779 931) scale(3.26167)"/><circle cx="3" cy="3" r="3" transform="translate(798 931) scale(3.26167)"/><circle cx="3" cy="3" r="3" transform="translate(817 931) scale(3.26167)"/><circle cx="3" cy="3" r="3" transform="translate(836 931) scale(3.26167)"/><circle cx="3" cy="3" r="3" transform="translate(855 931) scale(3.26167)"/><circle cx="3" cy="3" r="3" transform="translate(950 931) scale(3.26167)"/><circle cx="3" cy="3" r="3" transform="translate(209 950) scale(3.26167)"/><circle cx="3" cy="3" r="3" transform="translate(228 950) scale(3.26167)"/><circle cx="3" cy="3" r="3" transform="translate(247 950) scale(3.26167)"/><circle cx="3" cy="3" r="3" transform="translate(285 950) scale(3.26167)"/><circle cx="3" cy="3" r="3" transform="translate(323 950) scale(3.26167)"/><circle cx="3" cy="3" r="3" transform="translate(342 950) scale(3.26167)"/><circle cx="3" cy="3" r="3" transform="translate(361 950) scale(3.26167)"/><circle cx="3" cy="3" r="3" transform="translate(380 950) scale(3.26167)"/><circle cx="3" cy="3" r="3" transform="translate(399 950) scale(3.26167)"/><circle cx="3" cy="3" r="3" transform="translate(437 950) scale(3.26167)"/><circle cx="3" cy="3" r="3" transform="translate(456 950) scale(3.26167)"/><circle cx="3" cy="3" r="3" transform="translate(475 950) scale(3.26167)"/><circle cx="3" cy="3" r="3" transform="translate(513 950) scale(3.26167)"/><circle cx="3" cy="3" r="3" transform="translate(532 950) scale(3.26167)"/><circle cx="3" cy="3" r="3" transform="translate(589 950) scale(3.26167)"/><circle cx="3" cy="3" r="3" transform="translate(608 950) scale(3.26167)"/><circle cx="3" cy="3" r="3" transform="translate(627 950) scale(3.26167)"/><circle cx="3" cy="3" r="3" transform="translate(665 950) scale(3.26167)"/><circle cx="3" cy="3" r="3" transform="translate(703 950) scale(3.26167)"/><circle cx="3" cy="3" r="3" transform="translate(722 950) scale(3.26167)"/><circle cx="3" cy="3" r="3" transform="translate(741 950) scale(3.26167)"/><circle cx="3" cy="3" r="3" transform="translate(798 950) scale(3.26167)"/><circle cx="3" cy="3" r="3" transform="translate(893 950) scale(3.26167)"/><circle cx="3" cy="3" r="3" transform="translate(912 950) scale(3.26167)"/><circle cx="3" cy="3" r="3" transform="translate(931 950) scale(3.26167)"/><circle cx="3" cy="3" r="3" transform="translate(950 950) scale(3.26167)"/></g><path d="M38 38v91.2C38 152 57 171 79.8 171h48.45C152 171 171 152 171 129.2V79.8C171 57 152 38 129.2 38H38zm87.4 114H83.6C69.35 152 57 139.65 57 125.4V57h68.4c14.25 0 26.6 12.35 26.6 26.6v41.8c0 14.25-12.35 26.6-26.6 26.6zM969 38h-91.2C855 38 836 57 836 79.8v48.45C836 152 855 171 877.8 171h49.4c22.8 0 41.8-19 41.8-41.8V38zm-114 87.4V83.6c0-14.25 12.35-26.6 26.6-26.6H950v68.4c0 14.25-12.35 26.6-26.6 26.6h-41.8c-14.25 0-26.6-12.35-26.6-26.6zM38 969h91.2c22.8 0 41.8-19 41.8-41.8v-48.45C171 855 152 836 129.2 836H79.8C57 836 38 855 38 877.8V969zm114-87.4v41.8c0 14.25-12.35 26.6-26.6 26.6H57v-68.4c0-14.25 12.35-26.6 26.6-26.6h41.8c14.25 0 26.6 12.35 26.6 26.6z" fill="#000"/><path d="M133 92.15v25.65c0 7.6-7.6 15.2-16.15 15.2h-24.7c-9.5 0-16.15-6.65-16.15-16.15v-24.7C76 83.6 83.6 76 92.15 76h25.65c8.55 0 15.2 6.65 15.2 16.15zm798 0v25.65c0 7.6-7.6 15.2-16.15 15.2h-24.7c-9.5 0-16.15-6.65-16.15-16.15v-24.7C874 83.6 881.6 76 890.15 76h25.65c8.55 0 15.2 6.65 15.2 16.15zm-798 798v25.65c0 7.6-7.6 15.2-16.15 15.2h-24.7c-9.5 0-16.15-6.65-16.15-16.15v-24.7C76 881.6 83.6 874 92.15 874h25.65c8.55 0 15.2 6.65 15.2 16.15z" fill="#000"/></svg>