<svg xmlns="http://www.w3.org/2000/svg" xml:space="preserve" display="flex" style="max-width:100%;height:auto" viewBox="0 0 990 990"><path d="M0 0h990v990H0z" fill="#fff"/><g fill="#000"><circle cx="3" cy="3" r="3" transform="translate(220 44) scale(3.77667)"/><circle cx="3" cy="3" r="3" transform="translate(264 44) scale(3.77667)"/><circle cx="3" cy="3" r="3" transform="translate(330 44) scale(3.77667)"/><circle cx="3" cy="3" r="3" transform="translate(396 44) scale(3.77667)"/><circle cx="3" cy="3" r="3" transform="translate(418 44) scale(3.77667)"/><circle cx="3" cy="3" r="3" transform="translate(550 44) scale(3.77667)"/><circle cx="3" cy="3" r="3" transform="translate(572 44) scale(3.77667)"/><circle cx="3" cy="3" r="3" transform="translate(594 44) scale(3.77667)"/><circle cx="3" cy="3" r="3" transform="translate(616 44) scale(3.77667)"/><circle cx="3" cy="3" r="3" transform="translate(660 44) scale(3.77667)"/><circle cx="3" cy="3" r="3" transform="translate(682 44) scale(3.77667)"/><circle cx="3" cy="3" r="3" transform="translate(726 44) scale(3.77667)"/><circle cx="3" cy="3" r="3" transform="translate(748 44) scale(3.77667)"/><circle cx="3" cy="3" r="3" transform="translate(220 66) scale(3.77667)"/><circle cx="3" cy="3" r="3" transform="translate(242 66) scale(3.77667)"/><circle cx="3" cy="3" r="3" transform="translate(264 66) scale(3.77667)"/><circle cx="3" cy="3" r="3" transform="translate(308 66) scale(3.77667)"/><circle cx="3" cy="3" r="3" transform="translate(330 66) scale(3.77667)"/><circle cx="3" cy="3" r="3" transform="translate(418 66) scale(3.77667)"/><circle cx="3" cy="3" r="3" transform="translate(440 66) scale(3.77667)"/><circle cx="3" cy="3" r="3" transform="translate(484 66) scale(3.77667)"/><circle cx="3" cy="3" r="3" transform="translate(506 66) scale(3.77667)"/><circle cx="3" cy="3" r="3" transform="translate(528 66) scale(3.77667)"/><circle cx="3" cy="3" r="3" transform="translate(594 66) scale(3.77667)"/><circle cx="3" cy="3" r="3" transform="translate(616 66) scale(3.77667)"/><circle cx="3" cy="3" r="3" transform="translate(638 66) scale(3.77667)"/><circle cx="3" cy="3" r="3" transform="translate(660 66) scale(3.77667)"/><circle cx="3" cy="3" r="3" transform="translate(704 66) scale(3.77667)"/><circle cx="3" cy="3" r="3" transform="translate(748 66) scale(3.77667)"/><circle cx="3" cy="3" r="3" transform="translate(220 88) scale(3.77667)"/><circle cx="3" cy="3" r="3" transform="translate(264 88) scale(3.77667)"/><circle cx="3" cy="3" r="3" transform="translate(308 88) scale(3.77667)"/><circle cx="3" cy="3" r="3" transform="translate(352 88) scale(3.77667)"/><circle cx="3" cy="3" r="3" transform="translate(440 88) scale(3.77667)"/><circle cx="3" cy="3" r="3" transform="translate(506 88) scale(3.77667)"/><circle cx="3" cy="3" r="3" transform="translate(594 88) scale(3.77667)"/><circle cx="3" cy="3" r="3" transform="translate(638 88) scale(3.77667)"/><circle cx="3" cy="3" r="3" transform="translate(660 88) scale(3.77667)"/><circle cx="3" cy="3" r="3" transform="translate(726 88) scale(3.77667)"/><circle cx="3" cy="3" r="3" transform="translate(242 110) scale(3.77667)"/><circle cx="3" cy="3" r="3" transform="translate(286 110) scale(3.77667)"/><circle cx="3" cy="3" r="3" transform="translate(308 110) scale(3.77667)"/><circle cx="3" cy="3" r="3" transform="translate(330 110) scale(3.77667)"/><circle cx="3" cy="3" r="3" transform="translate(352 110) scale(3.77667)"/><circle cx="3" cy="3" r="3" transform="translate(374 110) scale(3.77667)"/><circle cx="3" cy="3" r="3" transform="translate(396 110) scale(3.77667)"/><circle cx="3" cy="3" r="3" transform="translate(418 110) scale(3.77667)"/><circle cx="3" cy="3" r="3" transform="translate(462 110) scale(3.77667)"/><circle cx="3" cy="3" r="3" transform="translate(506 110) scale(3.77667)"/><circle cx="3" cy="3" r="3" transform="translate(550 110) scale(3.77667)"/><circle cx="3" cy="3" r="3" transform="translate(572 110) scale(3.77667)"/><circle cx="3" cy="3" r="3" transform="translate(616 110) scale(3.77667)"/><circle cx="3" cy="3" r="3" transform="translate(682 110) scale(3.77667)"/><circle cx="3" cy="3" r="3" transform="translate(242 132) scale(3.77667)"/><circle cx="3" cy="3" r="3" transform="translate(308 132) scale(3.77667)"/><circle cx="3" cy="3" r="3" transform="translate(330 132) scale(3.77667)"/><circle cx="3" cy="3" r="3" transform="translate(374 132) scale(3.77667)"/><circle cx="3" cy="3" r="3" transform="translate(396 132) scale(3.77667)"/><circle cx="3" cy="3" r="3" transform="translate(418 132) scale(3.77667)"/><circle cx="3" cy="3" r="3" transform="translate(440 132) scale(3.77667)"/><circle cx="3" cy="3" r="3" transform="translate(462 132) scale(3.77667)"/><circle cx="3" cy="3" r="3" transform="translate(550 132) scale(3.77667)"/><circle cx="3" cy="3" r="3" transform="translate(660 132) scale(3.77667)"/><circle cx="3" cy="3" r="3" transform="translate(682 132) scale(3.77667)"/><circle cx="3" cy="3" r="3" transform="translate(704 132) scale(3.77667)"/><circle cx="3" cy="3" r="3" transform="translate(726 132) scale(3.77667)"/><circle cx="3" cy="3" r="3" transform="translate(748 132) scale(3.77667)"/><circle cx="3" cy="3" r="3" transform="translate(220 154) scale(3.77667)"/><circle cx="3" cy="3" r="3" transform="translate(264 154) scale(3.77667)"/><circle cx="3" cy="3" r="3" transform="translate(286 154) scale(3.77667)"/><circle cx="3" cy="3" r="3" transform="translate(506 154) scale(3.77667)"/><circle cx="3" cy="3" r="3" transform="translate(528 154) scale(3.77667)"/><circle cx="3" cy="3" r="3" transform="translate(550 154) scale(3.77667)"/><circle cx="3" cy="3" r="3" transform="translate(572 154) scale(3.77667)"/><circle cx="3" cy="3" r="3" transform="translate(638 154) scale(3.77667)"/><circle cx="3" cy="3" r="3" transform="translate(660 154) scale(3.77667)"/><circle cx="3" cy="3" r="3" transform="translate(682 154) scale(3.77667)"/><circle cx="3" cy="3" r="3" transform="translate(704 154) scale(3.77667)"/><circle cx="3" cy="3" r="3" transform="translate(748 154) scale(3.77667)"/><circle cx="3" cy="3" r="3" transform="translate(220 176) scale(3.77667)"/><circle cx="3" cy="3" r="3" transform="translate(264 176) scale(3.77667)"/><circle cx="3" cy="3" r="3" transform="translate(308 176) scale(3.77667)"/><circle cx="3" cy="3" r="3" transform="translate(352 176) scale(3.77667)"/><circle cx="3" cy="3" r="3" transform="translate(396 176) scale(3.77667)"/><circle cx="3" cy="3" r="3" transform="translate(440 176) scale(3.77667)"/><circle cx="3" cy="3" r="3" transform="translate(484 176) scale(3.77667)"/><circle cx="3" cy="3" r="3" transform="translate(528 176) scale(3.77667)"/><circle cx="3" cy="3" r="3" transform="translate(572 176) scale(3.77667)"/><circle cx="3" cy="3" r="3" transform="translate(616 176) scale(3.77667)"/><circle cx="3" cy="3" r="3" transform="translate(660 176) scale(3.77667)"/><circle cx="3" cy="3" r="3" transform="translate(704 176) scale(3.77667)"/><circle cx="3" cy="3" r="3" transform="translate(748 176) scale(3.77667)"/><circle cx="3" cy="3" r="3" transform="translate(220 198) scale(3.77667)"/><circle cx="3" cy="3" r="3" transform="translate(242 198) scale(3.77667)"/><circle cx="3" cy="3" r="3" transform="translate(286 198) scale(3.77667)"/><circle cx="3" cy="3" r="3" transform="translate(308 198) scale(3.77667)"/><circle cx="3" cy="3" r="3" transform="translate(352 198) scale(3.77667)"/><circle cx="3" cy="3" r="3" transform="translate(396 198) scale(3.77667)"/><circle cx="3" cy="3" r="3" transform="translate(550 198) scale(3.77667)"/><circle cx="3" cy="3" r="3" transform="translate(572 198) scale(3.77667)"/><circle cx="3" cy="3" r="3" transform="translate(660 198) scale(3.77667)"/><circle cx="3" cy="3" r="3" transform="translate(748 198) scale(3.77667)"/><circle cx="3" cy="3" r="3" transform="translate(88 220) scale(3.77667)"/><circle cx="3" cy="3" r="3" transform="translate(110 220) scale(3.77667)"/><circle cx="3" cy="3" r="3" transform="translate(132 220) scale(3.77667)"/><circle cx="3" cy="3" r="3" transform="translate(176 220) scale(3.77667)"/><circle cx="3" cy="3" r="3" transform="translate(220 220) scale(3.77667)"/><circle cx="3" cy="3" r="3" transform="translate(242 220) scale(3.77667)"/><circle cx="3" cy="3" r="3" transform="translate(286 220) scale(3.77667)"/><circle cx="3" cy="3" r="3" transform="translate(330 220) scale(3.77667)"/><circle cx="3" cy="3" r="3" transform="translate(418 220) scale(3.77667)"/><circle cx="3" cy="3" r="3" transform="translate(440 220) scale(3.77667)"/><circle cx="3" cy="3" r="3" transform="translate(506 220) scale(3.77667)"/><circle cx="3" cy="3" r="3" transform="translate(528 220) scale(3.77667)"/><circle cx="3" cy="3" r="3" transform="translate(572 220) scale(3.77667)"/><circle cx="3" cy="3" r="3" transform="translate(682 220) scale(3.77667)"/><circle cx="3" cy="3" r="3" transform="translate(770 220) scale(3.77667)"/><circle cx="3" cy="3" r="3" transform="translate(792 220) scale(3.77667)"/><circle cx="3" cy="3" r="3" transform="translate(814 220) scale(3.77667)"/><circle cx="3" cy="3" r="3" transform="translate(880 220) scale(3.77667)"/><circle cx="3" cy="3" r="3" transform="translate(902 220) scale(3.77667)"/><circle cx="3" cy="3" r="3" transform="translate(924 220) scale(3.77667)"/><circle cx="3" cy="3" r="3" transform="translate(44 242) scale(3.77667)"/><circle cx="3" cy="3" r="3" transform="translate(88 242) scale(3.77667)"/><circle cx="3" cy="3" r="3" transform="translate(110 242) scale(3.77667)"/><circle cx="3" cy="3" r="3" transform="translate(132 242) scale(3.77667)"/><circle cx="3" cy="3" r="3" transform="translate(154 242) scale(3.77667)"/><circle cx="3" cy="3" r="3" transform="translate(220 242) scale(3.77667)"/><circle cx="3" cy="3" r="3" transform="translate(242 242) scale(3.77667)"/><circle cx="3" cy="3" r="3" transform="translate(286 242) scale(3.77667)"/><circle cx="3" cy="3" r="3" transform="translate(396 242) scale(3.77667)"/><circle cx="3" cy="3" r="3" transform="translate(462 242) scale(3.77667)"/><circle cx="3" cy="3" r="3" transform="translate(484 242) scale(3.77667)"/><circle cx="3" cy="3" r="3" transform="translate(506 242) scale(3.77667)"/><circle cx="3" cy="3" r="3" transform="translate(550 242) scale(3.77667)"/><circle cx="3" cy="3" r="3" transform="translate(572 242) scale(3.77667)"/><circle cx="3" cy="3" r="3" transform="translate(594 242) scale(3.77667)"/><circle cx="3" cy="3" r="3" transform="translate(616 242) scale(3.77667)"/><circle cx="3" cy="3" r="3" transform="translate(660 242) scale(3.77667)"/><circle cx="3" cy="3" r="3" transform="translate(726 242) scale(3.77667)"/><circle cx="3" cy="3" r="3" transform="translate(748 242) scale(3.77667)"/><circle cx="3" cy="3" r="3" transform="translate(770 242) scale(3.77667)"/><circle cx="3" cy="3" r="3" transform="translate(792 242) scale(3.77667)"/><circle cx="3" cy="3" r="3" transform="translate(814 242) scale(3.77667)"/><circle cx="3" cy="3" r="3" transform="translate(836 242) scale(3.77667)"/><circle cx="3" cy="3" r="3" transform="translate(880 242) scale(3.77667)"/><circle cx="3" cy="3" r="3" transform="translate(902 242) scale(3.77667)"/><circle cx="3" cy="3" r="3" transform="translate(924 242) scale(3.77667)"/><circle cx="3" cy="3" r="3" transform="translate(66 264) scale(3.77667)"/><circle cx="3" cy="3" r="3" transform="translate(132 264) scale(3.77667)"/><circle cx="3" cy="3" r="3" transform="translate(176 264) scale(3.77667)"/><circle cx="3" cy="3" r="3" transform="translate(198 264) scale(3.77667)"/><circle cx="3" cy="3" r="3" transform="translate(220 264) scale(3.77667)"/><circle cx="3" cy="3" r="3" transform="translate(264 264) scale(3.77667)"/><circle cx="3" cy="3" r="3" transform="translate(330 264) scale(3.77667)"/><circle cx="3" cy="3" r="3" transform="translate(396 264) scale(3.77667)"/><circle cx="3" cy="3" r="3" transform="translate(418 264) scale(3.77667)"/><circle cx="3" cy="3" r="3" transform="translate(484 264) scale(3.77667)"/><circle cx="3" cy="3" r="3" transform="translate(528 264) scale(3.77667)"/><circle cx="3" cy="3" r="3" transform="translate(550 264) scale(3.77667)"/><circle cx="3" cy="3" r="3" transform="translate(638 264) scale(3.77667)"/><circle cx="3" cy="3" r="3" transform="translate(682 264) scale(3.77667)"/><circle cx="3" cy="3" r="3" transform="translate(704 264) scale(3.77667)"/><circle cx="3" cy="3" r="3" transform="translate(748 264) scale(3.77667)"/><circle cx="3" cy="3" r="3" transform="translate(792 264) scale(3.77667)"/><circle cx="3" cy="3" r="3" transform="translate(814 264) scale(3.77667)"/><circle cx="3" cy="3" r="3" transform="translate(836 264) scale(3.77667)"/><circle cx="3" cy="3" r="3" transform="translate(44 286) scale(3.77667)"/><circle cx="3" cy="3" r="3" transform="translate(66 286) scale(3.77667)"/><circle cx="3" cy="3" r="3" transform="translate(88 286) scale(3.77667)"/><circle cx="3" cy="3" r="3" transform="translate(110 286) scale(3.77667)"/><circle cx="3" cy="3" r="3" transform="translate(132 286) scale(3.77667)"/><circle cx="3" cy="3" r="3" transform="translate(154 286) scale(3.77667)"/><circle cx="3" cy="3" r="3" transform="translate(198 286) scale(3.77667)"/><circle cx="3" cy="3" r="3" transform="translate(264 286) scale(3.77667)"/><circle cx="3" cy="3" r="3" transform="translate(308 286) scale(3.77667)"/><circle cx="3" cy="3" r="3" transform="translate(330 286) scale(3.77667)"/><circle cx="3" cy="3" r="3" transform="translate(396 286) scale(3.77667)"/><circle cx="3" cy="3" r="3" transform="translate(418 286) scale(3.77667)"/><circle cx="3" cy="3" r="3" transform="translate(484 286) scale(3.77667)"/><circle cx="3" cy="3" r="3" transform="translate(506 286) scale(3.77667)"/><circle cx="3" cy="3" r="3" transform="translate(572 286) scale(3.77667)"/><circle cx="3" cy="3" r="3" transform="translate(594 286) scale(3.77667)"/><circle cx="3" cy="3" r="3" transform="translate(638 286) scale(3.77667)"/><circle cx="3" cy="3" r="3" transform="translate(660 286) scale(3.77667)"/><circle cx="3" cy="3" r="3" transform="translate(704 286) scale(3.77667)"/><circle cx="3" cy="3" r="3" transform="translate(726 286) scale(3.77667)"/><circle cx="3" cy="3" r="3" transform="translate(748 286) scale(3.77667)"/><circle cx="3" cy="3" r="3" transform="translate(770 286) scale(3.77667)"/><circle cx="3" cy="3" r="3" transform="translate(792 286) scale(3.77667)"/><circle cx="3" cy="3" r="3" transform="translate(814 286) scale(3.77667)"/><circle cx="3" cy="3" r="3" transform="translate(858 286) scale(3.77667)"/><circle cx="3" cy="3" r="3" transform="translate(902 286) scale(3.77667)"/><circle cx="3" cy="3" r="3" transform="translate(924 286) scale(3.77667)"/><circle cx="3" cy="3" r="3" transform="translate(66 308) scale(3.77667)"/><circle cx="3" cy="3" r="3" transform="translate(88 308) scale(3.77667)"/><circle cx="3" cy="3" r="3" transform="translate(132 308) scale(3.77667)"/><circle cx="3" cy="3" r="3" transform="translate(176 308) scale(3.77667)"/><circle cx="3" cy="3" r="3" transform="translate(198 308) scale(3.77667)"/><circle cx="3" cy="3" r="3" transform="translate(308 308) scale(3.77667)"/><circle cx="3" cy="3" r="3" transform="translate(352 308) scale(3.77667)"/><circle cx="3" cy="3" r="3" transform="translate(396 308) scale(3.77667)"/><circle cx="3" cy="3" r="3" transform="translate(418 308) scale(3.77667)"/><circle cx="3" cy="3" r="3" transform="translate(440 308) scale(3.77667)"/><circle cx="3" cy="3" r="3" transform="translate(528 308) scale(3.77667)"/><circle cx="3" cy="3" r="3" transform="translate(550 308) scale(3.77667)"/><circle cx="3" cy="3" r="3" transform="translate(616 308) scale(3.77667)"/><circle cx="3" cy="3" r="3" transform="translate(638 308) scale(3.77667)"/><circle cx="3" cy="3" r="3" transform="translate(660 308) scale(3.77667)"/><circle cx="3" cy="3" r="3" transform="translate(682 308) scale(3.77667)"/><circle cx="3" cy="3" r="3" transform="translate(704 308) scale(3.77667)"/><circle cx="3" cy="3" r="3" transform="translate(726 308) scale(3.77667)"/><circle cx="3" cy="3" r="3" transform="translate(858 308) scale(3.77667)"/><circle cx="3" cy="3" r="3" transform="translate(880 308) scale(3.77667)"/><circle cx="3" cy="3" r="3" transform="translate(902 308) scale(3.77667)"/><circle cx="3" cy="3" r="3" transform="translate(132 330) scale(3.77667)"/><circle cx="3" cy="3" r="3" transform="translate(154 330) scale(3.77667)"/><circle cx="3" cy="3" r="3" transform="translate(198 330) scale(3.77667)"/><circle cx="3" cy="3" r="3" transform="translate(242 330) scale(3.77667)"/><circle cx="3" cy="3" r="3" transform="translate(264 330) scale(3.77667)"/><circle cx="3" cy="3" r="3" transform="translate(308 330) scale(3.77667)"/><circle cx="3" cy="3" r="3" transform="translate(330 330) scale(3.77667)"/><circle cx="3" cy="3" r="3" transform="translate(418 330) scale(3.77667)"/><circle cx="3" cy="3" r="3" transform="translate(462 330) scale(3.77667)"/><circle cx="3" cy="3" r="3" transform="translate(484 330) scale(3.77667)"/><circle cx="3" cy="3" r="3" transform="translate(528 330) scale(3.77667)"/><circle cx="3" cy="3" r="3" transform="translate(616 330) scale(3.77667)"/><circle cx="3" cy="3" r="3" transform="translate(638 330) scale(3.77667)"/><circle cx="3" cy="3" r="3" transform="translate(704 330) scale(3.77667)"/><circle cx="3" cy="3" r="3" transform="translate(726 330) scale(3.77667)"/><circle cx="3" cy="3" r="3" transform="translate(748 330) scale(3.77667)"/><circle cx="3" cy="3" r="3" transform="translate(792 330) scale(3.77667)"/><circle cx="3" cy="3" r="3" transform="translate(814 330) scale(3.77667)"/><circle cx="3" cy="3" r="3" transform="translate(836 330) scale(3.77667)"/><circle cx="3" cy="3" r="3" transform="translate(880 330) scale(3.77667)"/><circle cx="3" cy="3" r="3" transform="translate(902 330) scale(3.77667)"/><circle cx="3" cy="3" r="3" transform="translate(924 330) scale(3.77667)"/><circle cx="3" cy="3" r="3" transform="translate(44 352) scale(3.77667)"/><circle cx="3" cy="3" r="3" transform="translate(66 352) scale(3.77667)"/><circle cx="3" cy="3" r="3" transform="translate(88 352) scale(3.77667)"/><circle cx="3" cy="3" r="3" transform="translate(110 352) scale(3.77667)"/><circle cx="3" cy="3" r="3" transform="translate(176 352) scale(3.77667)"/><circle cx="3" cy="3" r="3" transform="translate(264 352) scale(3.77667)"/><circle cx="3" cy="3" r="3" transform="translate(286 352) scale(3.77667)"/><circle cx="3" cy="3" r="3" transform="translate(308 352) scale(3.77667)"/><circle cx="3" cy="3" r="3" transform="translate(396 352) scale(3.77667)"/><circle cx="3" cy="3" r="3" transform="translate(462 352) scale(3.77667)"/><circle cx="3" cy="3" r="3" transform="translate(506 352) scale(3.77667)"/><circle cx="3" cy="3" r="3" transform="translate(550 352) scale(3.77667)"/><circle cx="3" cy="3" r="3" transform="translate(594 352) scale(3.77667)"/><circle cx="3" cy="3" r="3" transform="translate(616 352) scale(3.77667)"/><circle cx="3" cy="3" r="3" transform="translate(638 352) scale(3.77667)"/><circle cx="3" cy="3" r="3" transform="translate(660 352) scale(3.77667)"/><circle cx="3" cy="3" r="3" transform="translate(770 352) scale(3.77667)"/><circle cx="3" cy="3" r="3" transform="translate(814 352) scale(3.77667)"/><circle cx="3" cy="3" r="3" transform="translate(44 374) scale(3.77667)"/><circle cx="3" cy="3" r="3" transform="translate(66 374) scale(3.77667)"/><circle cx="3" cy="3" r="3" transform="translate(88 374) scale(3.77667)"/><circle cx="3" cy="3" r="3" transform="translate(110 374) scale(3.77667)"/><circle cx="3" cy="3" r="3" transform="translate(132 374) scale(3.77667)"/><circle cx="3" cy="3" r="3" transform="translate(198 374) scale(3.77667)"/><circle cx="3" cy="3" r="3" transform="translate(220 374) scale(3.77667)"/><circle cx="3" cy="3" r="3" transform="translate(264 374) scale(3.77667)"/><circle cx="3" cy="3" r="3" transform="translate(286 374) scale(3.77667)"/><circle cx="3" cy="3" r="3" transform="translate(374 374) scale(3.77667)"/><circle cx="3" cy="3" r="3" transform="translate(396 374) scale(3.77667)"/><circle cx="3" cy="3" r="3" transform="translate(462 374) scale(3.77667)"/><circle cx="3" cy="3" r="3" transform="translate(506 374) scale(3.77667)"/><circle cx="3" cy="3" r="3" transform="translate(528 374) scale(3.77667)"/><circle cx="3" cy="3" r="3" transform="translate(572 374) scale(3.77667)"/><circle cx="3" cy="3" r="3" transform="translate(594 374) scale(3.77667)"/><circle cx="3" cy="3" r="3" transform="translate(638 374) scale(3.77667)"/><circle cx="3" cy="3" r="3" transform="translate(704 374) scale(3.77667)"/><circle cx="3" cy="3" r="3" transform="translate(748 374) scale(3.77667)"/><circle cx="3" cy="3" r="3" transform="translate(792 374) scale(3.77667)"/><circle cx="3" cy="3" r="3" transform="translate(814 374) scale(3.77667)"/><circle cx="3" cy="3" r="3" transform="translate(836 374) scale(3.77667)"/><circle cx="3" cy="3" r="3" transform="translate(858 374) scale(3.77667)"/><circle cx="3" cy="3" r="3" transform="translate(902 374) scale(3.77667)"/><circle cx="3" cy="3" r="3" transform="translate(924 374) scale(3.77667)"/><circle cx="3" cy="3" r="3" transform="translate(44 396) scale(3.77667)"/><circle cx="3" cy="3" r="3" transform="translate(66 396) scale(3.77667)"/><circle cx="3" cy="3" r="3" transform="translate(88 396) scale(3.77667)"/><circle cx="3" cy="3" r="3" transform="translate(176 396) scale(3.77667)"/><circle cx="3" cy="3" r="3" transform="translate(198 396) scale(3.77667)"/><circle cx="3" cy="3" r="3" transform="translate(220 396) scale(3.77667)"/><circle cx="3" cy="3" r="3" transform="translate(286 396) scale(3.77667)"/><circle cx="3" cy="3" r="3" transform="translate(308 396) scale(3.77667)"/><circle cx="3" cy="3" r="3" transform="translate(330 396) scale(3.77667)"/><circle cx="3" cy="3" r="3" transform="translate(484 396) scale(3.77667)"/><circle cx="3" cy="3" r="3" transform="translate(506 396) scale(3.77667)"/><circle cx="3" cy="3" r="3" transform="translate(550 396) scale(3.77667)"/><circle cx="3" cy="3" r="3" transform="translate(572 396) scale(3.77667)"/><circle cx="3" cy="3" r="3" transform="translate(616 396) scale(3.77667)"/><circle cx="3" cy="3" r="3" transform="translate(638 396) scale(3.77667)"/><circle cx="3" cy="3" r="3" transform="translate(682 396) scale(3.77667)"/><circle cx="3" cy="3" r="3" transform="translate(770 396) scale(3.77667)"/><circle cx="3" cy="3" r="3" transform="translate(814 396) scale(3.77667)"/><circle cx="3" cy="3" r="3" transform="translate(858 396) scale(3.77667)"/><circle cx="3" cy="3" r="3" transform="translate(880 396) scale(3.77667)"/><circle cx="3" cy="3" r="3" transform="translate(44 418) scale(3.77667)"/><circle cx="3" cy="3" r="3" transform="translate(66 418) scale(3.77667)"/><circle cx="3" cy="3" r="3" transform="translate(88 418) scale(3.77667)"/><circle cx="3" cy="3" r="3" transform="translate(110 418) scale(3.77667)"/><circle cx="3" cy="3" r="3" transform="translate(154 418) scale(3.77667)"/><circle cx="3" cy="3" r="3" transform="translate(220 418) scale(3.77667)"/><circle cx="3" cy="3" r="3" transform="translate(242 418) scale(3.77667)"/><circle cx="3" cy="3" r="3" transform="translate(330 418) scale(3.77667)"/><circle cx="3" cy="3" r="3" transform="translate(352 418) scale(3.77667)"/><circle cx="3" cy="3" r="3" transform="translate(374 418) scale(3.77667)"/><circle cx="3" cy="3" r="3" transform="translate(396 418) scale(3.77667)"/><circle cx="3" cy="3" r="3" transform="translate(440 418) scale(3.77667)"/><circle cx="3" cy="3" r="3" transform="translate(462 418) scale(3.77667)"/><circle cx="3" cy="3" r="3" transform="translate(506 418) scale(3.77667)"/><circle cx="3" cy="3" r="3" transform="translate(528 418) scale(3.77667)"/><circle cx="3" cy="3" r="3" transform="translate(550 418) scale(3.77667)"/><circle cx="3" cy="3" r="3" transform="translate(572 418) scale(3.77667)"/><circle cx="3" cy="3" r="3" transform="translate(594 418) scale(3.77667)"/><circle cx="3" cy="3" r="3" transform="translate(616 418) scale(3.77667)"/><circle cx="3" cy="3" r="3" transform="translate(682 418) scale(3.77667)"/><circle cx="3" cy="3" r="3" transform="translate(726 418) scale(3.77667)"/><circle cx="3" cy="3" r="3" transform="translate(748 418) scale(3.77667)"/><circle cx="3" cy="3" r="3" transform="translate(792 418) scale(3.77667)"/><circle cx="3" cy="3" r="3" transform="translate(814 418) scale(3.77667)"/><circle cx="3" cy="3" r="3" transform="translate(836 418) scale(3.77667)"/><circle cx="3" cy="3" r="3" transform="translate(858 418) scale(3.77667)"/><circle cx="3" cy="3" r="3" transform="translate(880 418) scale(3.77667)"/><circle cx="3" cy="3" r="3" transform="translate(902 418) scale(3.77667)"/><circle cx="3" cy="3" r="3" transform="translate(924 418) scale(3.77667)"/><circle cx="3" cy="3" r="3" transform="translate(176 440) scale(3.77667)"/><circle cx="3" cy="3" r="3" transform="translate(198 440) scale(3.77667)"/><circle cx="3" cy="3" r="3" transform="translate(220 440) scale(3.77667)"/><circle cx="3" cy="3" r="3" transform="translate(242 440) scale(3.77667)"/><circle cx="3" cy="3" r="3" transform="translate(286 440) scale(3.77667)"/><circle cx="3" cy="3" r="3" transform="translate(308 440) scale(3.77667)"/><circle cx="3" cy="3" r="3" transform="translate(374 440) scale(3.77667)"/><circle cx="3" cy="3" r="3" transform="translate(396 440) scale(3.77667)"/><circle cx="3" cy="3" r="3" transform="translate(550 440) scale(3.77667)"/><circle cx="3" cy="3" r="3" transform="translate(638 440) scale(3.77667)"/><circle cx="3" cy="3" r="3" transform="translate(682 440) scale(3.77667)"/><circle cx="3" cy="3" r="3" transform="translate(748 440) scale(3.77667)"/><circle cx="3" cy="3" r="3" transform="translate(770 440) scale(3.77667)"/><circle cx="3" cy="3" r="3" transform="translate(792 440) scale(3.77667)"/><circle cx="3" cy="3" r="3" transform="translate(836 440) scale(3.77667)"/><circle cx="3" cy="3" r="3" transform="translate(154 462) scale(3.77667)"/><circle cx="3" cy="3" r="3" transform="translate(220 462) scale(3.77667)"/><circle cx="3" cy="3" r="3" transform="translate(242 462) scale(3.77667)"/><circle cx="3" cy="3" r="3" transform="translate(264 462) scale(3.77667)"/><circle cx="3" cy="3" r="3" transform="translate(374 462) scale(3.77667)"/><circle cx="3" cy="3" r="3" transform="translate(396 462) scale(3.77667)"/><circle cx="3" cy="3" r="3" transform="translate(440 462) scale(3.77667)"/><circle cx="3" cy="3" r="3" transform="translate(462 462) scale(3.77667)"/><circle cx="3" cy="3" r="3" transform="translate(484 462) scale(3.77667)"/><circle cx="3" cy="3" r="3" transform="translate(616 462) scale(3.77667)"/><circle cx="3" cy="3" r="3" transform="translate(660 462) scale(3.77667)"/><circle cx="3" cy="3" r="3" transform="translate(748 462) scale(3.77667)"/><circle cx="3" cy="3" r="3" transform="translate(836 462) scale(3.77667)"/><circle cx="3" cy="3" r="3" transform="translate(858 462) scale(3.77667)"/><circle cx="3" cy="3" r="3" transform="translate(902 462) scale(3.77667)"/><circle cx="3" cy="3" r="3" transform="translate(44 484) scale(3.77667)"/><circle cx="3" cy="3" r="3" transform="translate(66 484) scale(3.77667)"/><circle cx="3" cy="3" r="3" transform="translate(88 484) scale(3.77667)"/><circle cx="3" cy="3" r="3" transform="translate(132 484) scale(3.77667)"/><circle cx="3" cy="3" r="3" transform="translate(176 484) scale(3.77667)"/><circle cx="3" cy="3" r="3" transform="translate(198 484) scale(3.77667)"/><circle cx="3" cy="3" r="3" transform="translate(220 484) scale(3.77667)"/><circle cx="3" cy="3" r="3" transform="translate(286 484) scale(3.77667)"/><circle cx="3" cy="3" r="3" transform="translate(308 484) scale(3.77667)"/><circle cx="3" cy="3" r="3" transform="translate(330 484) scale(3.77667)"/><circle cx="3" cy="3" r="3" transform="translate(374 484) scale(3.77667)"/><circle cx="3" cy="3" r="3" transform="translate(396 484) scale(3.77667)"/><circle cx="3" cy="3" r="3" transform="translate(418 484) scale(3.77667)"/><circle cx="3" cy="3" r="3" transform="translate(440 484) scale(3.77667)"/><circle cx="3" cy="3" r="3" transform="translate(506 484) scale(3.77667)"/><circle cx="3" cy="3" r="3" transform="translate(572 484) scale(3.77667)"/><circle cx="3" cy="3" r="3" transform="translate(594 484) scale(3.77667)"/><circle cx="3" cy="3" r="3" transform="translate(616 484) scale(3.77667)"/><circle cx="3" cy="3" r="3" transform="translate(682 484) scale(3.77667)"/><circle cx="3" cy="3" r="3" transform="translate(748 484) scale(3.77667)"/><circle cx="3" cy="3" r="3" transform="translate(880 484) scale(3.77667)"/><circle cx="3" cy="3" r="3" transform="translate(902 484) scale(3.77667)"/><circle cx="3" cy="3" r="3" transform="translate(88 506) scale(3.77667)"/><circle cx="3" cy="3" r="3" transform="translate(110 506) scale(3.77667)"/><circle cx="3" cy="3" r="3" transform="translate(132 506) scale(3.77667)"/><circle cx="3" cy="3" r="3" transform="translate(154 506) scale(3.77667)"/><circle cx="3" cy="3" r="3" transform="translate(198 506) scale(3.77667)"/><circle cx="3" cy="3" r="3" transform="translate(220 506) scale(3.77667)"/><circle cx="3" cy="3" r="3" transform="translate(242 506) scale(3.77667)"/><circle cx="3" cy="3" r="3" transform="translate(264 506) scale(3.77667)"/><circle cx="3" cy="3" r="3" transform="translate(308 506) scale(3.77667)"/><circle cx="3" cy="3" r="3" transform="translate(374 506) scale(3.77667)"/><circle cx="3" cy="3" r="3" transform="translate(418 506) scale(3.77667)"/><circle cx="3" cy="3" r="3" transform="translate(440 506) scale(3.77667)"/><circle cx="3" cy="3" r="3" transform="translate(462 506) scale(3.77667)"/><circle cx="3" cy="3" r="3" transform="translate(484 506) scale(3.77667)"/><circle cx="3" cy="3" r="3" transform="translate(506 506) scale(3.77667)"/><circle cx="3" cy="3" r="3" transform="translate(528 506) scale(3.77667)"/><circle cx="3" cy="3" r="3" transform="translate(550 506) scale(3.77667)"/><circle cx="3" cy="3" r="3" transform="translate(616 506) scale(3.77667)"/><circle cx="3" cy="3" r="3" transform="translate(704 506) scale(3.77667)"/><circle cx="3" cy="3" r="3" transform="translate(726 506) scale(3.77667)"/><circle cx="3" cy="3" r="3" transform="translate(748 506) scale(3.77667)"/><circle cx="3" cy="3" r="3" transform="translate(792 506) scale(3.77667)"/><circle cx="3" cy="3" r="3" transform="translate(814 506) scale(3.77667)"/><circle cx="3" cy="3" r="3" transform="translate(836 506) scale(3.77667)"/><circle cx="3" cy="3" r="3" transform="translate(858 506) scale(3.77667)"/><circle cx="3" cy="3" r="3" transform="translate(902 506) scale(3.77667)"/><circle cx="3" cy="3" r="3" transform="translate(924 506) scale(3.77667)"/><circle cx="3" cy="3" r="3" transform="translate(44 528) scale(3.77667)"/><circle cx="3" cy="3" r="3" transform="translate(66 528) scale(3.77667)"/><circle cx="3" cy="3" r="3" transform="translate(88 528) scale(3.77667)"/><circle cx="3" cy="3" r="3" transform="translate(110 528) scale(3.77667)"/><circle cx="3" cy="3" r="3" transform="translate(132 528) scale(3.77667)"/><circle cx="3" cy="3" r="3" transform="translate(154 528) scale(3.77667)"/><circle cx="3" cy="3" r="3" transform="translate(176 528) scale(3.77667)"/><circle cx="3" cy="3" r="3" transform="translate(198 528) scale(3.77667)"/><circle cx="3" cy="3" r="3" transform="translate(242 528) scale(3.77667)"/><circle cx="3" cy="3" r="3" transform="translate(352 528) scale(3.77667)"/><circle cx="3" cy="3" r="3" transform="translate(440 528) scale(3.77667)"/><circle cx="3" cy="3" r="3" transform="translate(462 528) scale(3.77667)"/><circle cx="3" cy="3" r="3" transform="translate(528 528) scale(3.77667)"/><circle cx="3" cy="3" r="3" transform="translate(572 528) scale(3.77667)"/><circle cx="3" cy="3" r="3" transform="translate(594 528) scale(3.77667)"/><circle cx="3" cy="3" r="3" transform="translate(638 528) scale(3.77667)"/><circle cx="3" cy="3" r="3" transform="translate(660 528) scale(3.77667)"/><circle cx="3" cy="3" r="3" transform="translate(682 528) scale(3.77667)"/><circle cx="3" cy="3" r="3" transform="translate(704 528) scale(3.77667)"/><circle cx="3" cy="3" r="3" transform="translate(814 528) scale(3.77667)"/><circle cx="3" cy="3" r="3" transform="translate(836 528) scale(3.77667)"/><circle cx="3" cy="3" r="3" transform="translate(858 528) scale(3.77667)"/><circle cx="3" cy="3" r="3" transform="translate(44 550) scale(3.77667)"/><circle cx="3" cy="3" r="3" transform="translate(66 550) scale(3.77667)"/><circle cx="3" cy="3" r="3" transform="translate(110 550) scale(3.77667)"/><circle cx="3" cy="3" r="3" transform="translate(132 550) scale(3.77667)"/><circle cx="3" cy="3" r="3" transform="translate(154 550) scale(3.77667)"/><circle cx="3" cy="3" r="3" transform="translate(330 550) scale(3.77667)"/><circle cx="3" cy="3" r="3" transform="translate(396 550) scale(3.77667)"/><circle cx="3" cy="3" r="3" transform="translate(484 550) scale(3.77667)"/><circle cx="3" cy="3" r="3" transform="translate(506 550) scale(3.77667)"/><circle cx="3" cy="3" r="3" transform="translate(528 550) scale(3.77667)"/><circle cx="3" cy="3" r="3" transform="translate(550 550) scale(3.77667)"/><circle cx="3" cy="3" r="3" transform="translate(660 550) scale(3.77667)"/><circle cx="3" cy="3" r="3" transform="translate(704 550) scale(3.77667)"/><circle cx="3" cy="3" r="3" transform="translate(814 550) scale(3.77667)"/><circle cx="3" cy="3" r="3" transform="translate(836 550) scale(3.77667)"/><circle cx="3" cy="3" r="3" transform="translate(858 550) scale(3.77667)"/><circle cx="3" cy="3" r="3" transform="translate(924 550) scale(3.77667)"/><circle cx="3" cy="3" r="3" transform="translate(44 572) scale(3.77667)"/><circle cx="3" cy="3" r="3" transform="translate(88 572) scale(3.77667)"/><circle cx="3" cy="3" r="3" transform="translate(110 572) scale(3.77667)"/><circle cx="3" cy="3" r="3" transform="translate(132 572) scale(3.77667)"/><circle cx="3" cy="3" r="3" transform="translate(154 572) scale(3.77667)"/><circle cx="3" cy="3" r="3" transform="translate(176 572) scale(3.77667)"/><circle cx="3" cy="3" r="3" transform="translate(220 572) scale(3.77667)"/><circle cx="3" cy="3" r="3" transform="translate(286 572) scale(3.77667)"/><circle cx="3" cy="3" r="3" transform="translate(330 572) scale(3.77667)"/><circle cx="3" cy="3" r="3" transform="translate(352 572) scale(3.77667)"/><circle cx="3" cy="3" r="3" transform="translate(374 572) scale(3.77667)"/><circle cx="3" cy="3" r="3" transform="translate(396 572) scale(3.77667)"/><circle cx="3" cy="3" r="3" transform="translate(440 572) scale(3.77667)"/><circle cx="3" cy="3" r="3" transform="translate(484 572) scale(3.77667)"/><circle cx="3" cy="3" r="3" transform="translate(506 572) scale(3.77667)"/><circle cx="3" cy="3" r="3" transform="translate(572 572) scale(3.77667)"/><circle cx="3" cy="3" r="3" transform="translate(594 572) scale(3.77667)"/><circle cx="3" cy="3" r="3" transform="translate(660 572) scale(3.77667)"/><circle cx="3" cy="3" r="3" transform="translate(682 572) scale(3.77667)"/><circle cx="3" cy="3" r="3" transform="translate(726 572) scale(3.77667)"/><circle cx="3" cy="3" r="3" transform="translate(858 572) scale(3.77667)"/><circle cx="3" cy="3" r="3" transform="translate(880 572) scale(3.77667)"/><circle cx="3" cy="3" r="3" transform="translate(66 594) scale(3.77667)"/><circle cx="3" cy="3" r="3" transform="translate(88 594) scale(3.77667)"/><circle cx="3" cy="3" r="3" transform="translate(110 594) scale(3.77667)"/><circle cx="3" cy="3" r="3" transform="translate(198 594) scale(3.77667)"/><circle cx="3" cy="3" r="3" transform="translate(220 594) scale(3.77667)"/><circle cx="3" cy="3" r="3" transform="translate(330 594) scale(3.77667)"/><circle cx="3" cy="3" r="3" transform="translate(352 594) scale(3.77667)"/><circle cx="3" cy="3" r="3" transform="translate(374 594) scale(3.77667)"/><circle cx="3" cy="3" r="3" transform="translate(418 594) scale(3.77667)"/><circle cx="3" cy="3" r="3" transform="translate(440 594) scale(3.77667)"/><circle cx="3" cy="3" r="3" transform="translate(462 594) scale(3.77667)"/><circle cx="3" cy="3" r="3" transform="translate(528 594) scale(3.77667)"/><circle cx="3" cy="3" r="3" transform="translate(616 594) scale(3.77667)"/><circle cx="3" cy="3" r="3" transform="translate(660 594) scale(3.77667)"/><circle cx="3" cy="3" r="3" transform="translate(682 594) scale(3.77667)"/><circle cx="3" cy="3" r="3" transform="translate(726 594) scale(3.77667)"/><circle cx="3" cy="3" r="3" transform="translate(770 594) scale(3.77667)"/><circle cx="3" cy="3" r="3" transform="translate(792 594) scale(3.77667)"/><circle cx="3" cy="3" r="3" transform="translate(836 594) scale(3.77667)"/><circle cx="3" cy="3" r="3" transform="translate(858 594) scale(3.77667)"/><circle cx="3" cy="3" r="3" transform="translate(924 594) scale(3.77667)"/><circle cx="3" cy="3" r="3" transform="translate(44 616) scale(3.77667)"/><circle cx="3" cy="3" r="3" transform="translate(66 616) scale(3.77667)"/><circle cx="3" cy="3" r="3" transform="translate(110 616) scale(3.77667)"/><circle cx="3" cy="3" r="3" transform="translate(176 616) scale(3.77667)"/><circle cx="3" cy="3" r="3" transform="translate(242 616) scale(3.77667)"/><circle cx="3" cy="3" r="3" transform="translate(264 616) scale(3.77667)"/><circle cx="3" cy="3" r="3" transform="translate(308 616) scale(3.77667)"/><circle cx="3" cy="3" r="3" transform="translate(330 616) scale(3.77667)"/><circle cx="3" cy="3" r="3" transform="translate(352 616) scale(3.77667)"/><circle cx="3" cy="3" r="3" transform="translate(374 616) scale(3.77667)"/><circle cx="3" cy="3" r="3" transform="translate(418 616) scale(3.77667)"/><circle cx="3" cy="3" r="3" transform="translate(462 616) scale(3.77667)"/><circle cx="3" cy="3" r="3" transform="translate(506 616) scale(3.77667)"/><circle cx="3" cy="3" r="3" transform="translate(528 616) scale(3.77667)"/><circle cx="3" cy="3" r="3" transform="translate(550 616) scale(3.77667)"/><circle cx="3" cy="3" r="3" transform="translate(616 616) scale(3.77667)"/><circle cx="3" cy="3" r="3" transform="translate(638 616) scale(3.77667)"/><circle cx="3" cy="3" r="3" transform="translate(660 616) scale(3.77667)"/><circle cx="3" cy="3" r="3" transform="translate(682 616) scale(3.77667)"/><circle cx="3" cy="3" r="3" transform="translate(748 616) scale(3.77667)"/><circle cx="3" cy="3" r="3" transform="translate(814 616) scale(3.77667)"/><circle cx="3" cy="3" r="3" transform="translate(66 638) scale(3.77667)"/><circle cx="3" cy="3" r="3" transform="translate(88 638) scale(3.77667)"/><circle cx="3" cy="3" r="3" transform="translate(132 638) scale(3.77667)"/><circle cx="3" cy="3" r="3" transform="translate(220 638) scale(3.77667)"/><circle cx="3" cy="3" r="3" transform="translate(242 638) scale(3.77667)"/><circle cx="3" cy="3" r="3" transform="translate(286 638) scale(3.77667)"/><circle cx="3" cy="3" r="3" transform="translate(352 638) scale(3.77667)"/><circle cx="3" cy="3" r="3" transform="translate(374 638) scale(3.77667)"/><circle cx="3" cy="3" r="3" transform="translate(396 638) scale(3.77667)"/><circle cx="3" cy="3" r="3" transform="translate(528 638) scale(3.77667)"/><circle cx="3" cy="3" r="3" transform="translate(550 638) scale(3.77667)"/><circle cx="3" cy="3" r="3" transform="translate(572 638) scale(3.77667)"/><circle cx="3" cy="3" r="3" transform="translate(594 638) scale(3.77667)"/><circle cx="3" cy="3" r="3" transform="translate(616 638) scale(3.77667)"/><circle cx="3" cy="3" r="3" transform="translate(704 638) scale(3.77667)"/><circle cx="3" cy="3" r="3" transform="translate(726 638) scale(3.77667)"/><circle cx="3" cy="3" r="3" transform="translate(748 638) scale(3.77667)"/><circle cx="3" cy="3" r="3" transform="translate(770 638) scale(3.77667)"/><circle cx="3" cy="3" r="3" transform="translate(836 638) scale(3.77667)"/><circle cx="3" cy="3" r="3" transform="translate(858 638) scale(3.77667)"/><circle cx="3" cy="3" r="3" transform="translate(902 638) scale(3.77667)"/><circle cx="3" cy="3" r="3" transform="translate(66 660) scale(3.77667)"/><circle cx="3" cy="3" r="3" transform="translate(88 660) scale(3.77667)"/><circle cx="3" cy="3" r="3" transform="translate(176 660) scale(3.77667)"/><circle cx="3" cy="3" r="3" transform="translate(198 660) scale(3.77667)"/><circle cx="3" cy="3" r="3" transform="translate(220 660) scale(3.77667)"/><circle cx="3" cy="3" r="3" transform="translate(242 660) scale(3.77667)"/><circle cx="3" cy="3" r="3" transform="translate(264 660) scale(3.77667)"/><circle cx="3" cy="3" r="3" transform="translate(352 660) scale(3.77667)"/><circle cx="3" cy="3" r="3" transform="translate(506 660) scale(3.77667)"/><circle cx="3" cy="3" r="3" transform="translate(572 660) scale(3.77667)"/><circle cx="3" cy="3" r="3" transform="translate(638 660) scale(3.77667)"/><circle cx="3" cy="3" r="3" transform="translate(682 660) scale(3.77667)"/><circle cx="3" cy="3" r="3" transform="translate(726 660) scale(3.77667)"/><circle cx="3" cy="3" r="3" transform="translate(748 660) scale(3.77667)"/><circle cx="3" cy="3" r="3" transform="translate(858 660) scale(3.77667)"/><circle cx="3" cy="3" r="3" transform="translate(880 660) scale(3.77667)"/><circle cx="3" cy="3" r="3" transform="translate(902 660) scale(3.77667)"/><circle cx="3" cy="3" r="3" transform="translate(44 682) scale(3.77667)"/><circle cx="3" cy="3" r="3" transform="translate(66 682) scale(3.77667)"/><circle cx="3" cy="3" r="3" transform="translate(110 682) scale(3.77667)"/><circle cx="3" cy="3" r="3" transform="translate(132 682) scale(3.77667)"/><circle cx="3" cy="3" r="3" transform="translate(220 682) scale(3.77667)"/><circle cx="3" cy="3" r="3" transform="translate(286 682) scale(3.77667)"/><circle cx="3" cy="3" r="3" transform="translate(330 682) scale(3.77667)"/><circle cx="3" cy="3" r="3" transform="translate(374 682) scale(3.77667)"/><circle cx="3" cy="3" r="3" transform="translate(396 682) scale(3.77667)"/><circle cx="3" cy="3" r="3" transform="translate(440 682) scale(3.77667)"/><circle cx="3" cy="3" r="3" transform="translate(572 682) scale(3.77667)"/><circle cx="3" cy="3" r="3" transform="translate(638 682) scale(3.77667)"/><circle cx="3" cy="3" r="3" transform="translate(660 682) scale(3.77667)"/><circle cx="3" cy="3" r="3" transform="translate(704 682) scale(3.77667)"/><circle cx="3" cy="3" r="3" transform="translate(726 682) scale(3.77667)"/><circle cx="3" cy="3" r="3" transform="translate(748 682) scale(3.77667)"/><circle cx="3" cy="3" r="3" transform="translate(770 682) scale(3.77667)"/><circle cx="3" cy="3" r="3" transform="translate(792 682) scale(3.77667)"/><circle cx="3" cy="3" r="3" transform="translate(814 682) scale(3.77667)"/><circle cx="3" cy="3" r="3" transform="translate(836 682) scale(3.77667)"/><circle cx="3" cy="3" r="3" transform="translate(858 682) scale(3.77667)"/><circle cx="3" cy="3" r="3" transform="translate(924 682) scale(3.77667)"/><circle cx="3" cy="3" r="3" transform="translate(44 704) scale(3.77667)"/><circle cx="3" cy="3" r="3" transform="translate(110 704) scale(3.77667)"/><circle cx="3" cy="3" r="3" transform="translate(154 704) scale(3.77667)"/><circle cx="3" cy="3" r="3" transform="translate(176 704) scale(3.77667)"/><circle cx="3" cy="3" r="3" transform="translate(198 704) scale(3.77667)"/><circle cx="3" cy="3" r="3" transform="translate(330 704) scale(3.77667)"/><circle cx="3" cy="3" r="3" transform="translate(396 704) scale(3.77667)"/><circle cx="3" cy="3" r="3" transform="translate(418 704) scale(3.77667)"/><circle cx="3" cy="3" r="3" transform="translate(462 704) scale(3.77667)"/><circle cx="3" cy="3" r="3" transform="translate(484 704) scale(3.77667)"/><circle cx="3" cy="3" r="3" transform="translate(528 704) scale(3.77667)"/><circle cx="3" cy="3" r="3" transform="translate(572 704) scale(3.77667)"/><circle cx="3" cy="3" r="3" transform="translate(682 704) scale(3.77667)"/><circle cx="3" cy="3" r="3" transform="translate(704 704) scale(3.77667)"/><circle cx="3" cy="3" r="3" transform="translate(748 704) scale(3.77667)"/><circle cx="3" cy="3" r="3" transform="translate(770 704) scale(3.77667)"/><circle cx="3" cy="3" r="3" transform="translate(792 704) scale(3.77667)"/><circle cx="3" cy="3" r="3" transform="translate(880 704) scale(3.77667)"/><circle cx="3" cy="3" r="3" transform="translate(44 726) scale(3.77667)"/><circle cx="3" cy="3" r="3" transform="translate(110 726) scale(3.77667)"/><circle cx="3" cy="3" r="3" transform="translate(132 726) scale(3.77667)"/><circle cx="3" cy="3" r="3" transform="translate(198 726) scale(3.77667)"/><circle cx="3" cy="3" r="3" transform="translate(330 726) scale(3.77667)"/><circle cx="3" cy="3" r="3" transform="translate(396 726) scale(3.77667)"/><circle cx="3" cy="3" r="3" transform="translate(418 726) scale(3.77667)"/><circle cx="3" cy="3" r="3" transform="translate(440 726) scale(3.77667)"/><circle cx="3" cy="3" r="3" transform="translate(462 726) scale(3.77667)"/><circle cx="3" cy="3" r="3" transform="translate(484 726) scale(3.77667)"/><circle cx="3" cy="3" r="3" transform="translate(506 726) scale(3.77667)"/><circle cx="3" cy="3" r="3" transform="translate(550 726) scale(3.77667)"/><circle cx="3" cy="3" r="3" transform="translate(572 726) scale(3.77667)"/><circle cx="3" cy="3" r="3" transform="translate(594 726) scale(3.77667)"/><circle cx="3" cy="3" r="3" transform="translate(660 726) scale(3.77667)"/><circle cx="3" cy="3" r="3" transform="translate(704 726) scale(3.77667)"/><circle cx="3" cy="3" r="3" transform="translate(770 726) scale(3.77667)"/><circle cx="3" cy="3" r="3" transform="translate(792 726) scale(3.77667)"/><circle cx="3" cy="3" r="3" transform="translate(814 726) scale(3.77667)"/><circle cx="3" cy="3" r="3" transform="translate(44 748) scale(3.77667)"/><circle cx="3" cy="3" r="3" transform="translate(110 748) scale(3.77667)"/><circle cx="3" cy="3" r="3" transform="translate(132 748) scale(3.77667)"/><circle cx="3" cy="3" r="3" transform="translate(176 748) scale(3.77667)"/><circle cx="3" cy="3" r="3" transform="translate(198 748) scale(3.77667)"/><circle cx="3" cy="3" r="3" transform="translate(242 748) scale(3.77667)"/><circle cx="3" cy="3" r="3" transform="translate(286 748) scale(3.77667)"/><circle cx="3" cy="3" r="3" transform="translate(330 748) scale(3.77667)"/><circle cx="3" cy="3" r="3" transform="translate(352 748) scale(3.77667)"/><circle cx="3" cy="3" r="3" transform="translate(418 748) scale(3.77667)"/><circle cx="3" cy="3" r="3" transform="translate(484 748) scale(3.77667)"/><circle cx="3" cy="3" r="3" transform="translate(528 748) scale(3.77667)"/><circle cx="3" cy="3" r="3" transform="translate(572 748) scale(3.77667)"/><circle cx="3" cy="3" r="3" transform="translate(682 748) scale(3.77667)"/><circle cx="3" cy="3" r="3" transform="translate(748 748) scale(3.77667)"/><circle cx="3" cy="3" r="3" transform="translate(770 748) scale(3.77667)"/><circle cx="3" cy="3" r="3" transform="translate(792 748) scale(3.77667)"/><circle cx="3" cy="3" r="3" transform="translate(814 748) scale(3.77667)"/><circle cx="3" cy="3" r="3" transform="translate(836 748) scale(3.77667)"/><circle cx="3" cy="3" r="3" transform="translate(880 748) scale(3.77667)"/><circle cx="3" cy="3" r="3" transform="translate(902 748) scale(3.77667)"/><circle cx="3" cy="3" r="3" transform="translate(220 770) scale(3.77667)"/><circle cx="3" cy="3" r="3" transform="translate(264 770) scale(3.77667)"/><circle cx="3" cy="3" r="3" transform="translate(308 770) scale(3.77667)"/><circle cx="3" cy="3" r="3" transform="translate(330 770) scale(3.77667)"/><circle cx="3" cy="3" r="3" transform="translate(352 770) scale(3.77667)"/><circle cx="3" cy="3" r="3" transform="translate(418 770) scale(3.77667)"/><circle cx="3" cy="3" r="3" transform="translate(440 770) scale(3.77667)"/><circle cx="3" cy="3" r="3" transform="translate(484 770) scale(3.77667)"/><circle cx="3" cy="3" r="3" transform="translate(506 770) scale(3.77667)"/><circle cx="3" cy="3" r="3" transform="translate(528 770) scale(3.77667)"/><circle cx="3" cy="3" r="3" transform="translate(550 770) scale(3.77667)"/><circle cx="3" cy="3" r="3" transform="translate(572 770) scale(3.77667)"/><circle cx="3" cy="3" r="3" transform="translate(594 770) scale(3.77667)"/><circle cx="3" cy="3" r="3" transform="translate(616 770) scale(3.77667)"/><circle cx="3" cy="3" r="3" transform="translate(660 770) scale(3.77667)"/><circle cx="3" cy="3" r="3" transform="translate(682 770) scale(3.77667)"/><circle cx="3" cy="3" r="3" transform="translate(704 770) scale(3.77667)"/><circle cx="3" cy="3" r="3" transform="translate(748 770) scale(3.77667)"/><circle cx="3" cy="3" r="3" transform="translate(836 770) scale(3.77667)"/><circle cx="3" cy="3" r="3" transform="translate(880 770) scale(3.77667)"/><circle cx="3" cy="3" r="3" transform="translate(924 770) scale(3.77667)"/><circle cx="3" cy="3" r="3" transform="translate(264 792) scale(3.77667)"/><circle cx="3" cy="3" r="3" transform="translate(286 792) scale(3.77667)"/><circle cx="3" cy="3" r="3" transform="translate(352 792) scale(3.77667)"/><circle cx="3" cy="3" r="3" transform="translate(374 792) scale(3.77667)"/><circle cx="3" cy="3" r="3" transform="translate(396 792) scale(3.77667)"/><circle cx="3" cy="3" r="3" transform="translate(418 792) scale(3.77667)"/><circle cx="3" cy="3" r="3" transform="translate(440 792) scale(3.77667)"/><circle cx="3" cy="3" r="3" transform="translate(462 792) scale(3.77667)"/><circle cx="3" cy="3" r="3" transform="translate(484 792) scale(3.77667)"/><circle cx="3" cy="3" r="3" transform="translate(550 792) scale(3.77667)"/><circle cx="3" cy="3" r="3" transform="translate(572 792) scale(3.77667)"/><circle cx="3" cy="3" r="3" transform="translate(616 792) scale(3.77667)"/><circle cx="3" cy="3" r="3" transform="translate(638 792) scale(3.77667)"/><circle cx="3" cy="3" r="3" transform="translate(660 792) scale(3.77667)"/><circle cx="3" cy="3" r="3" transform="translate(682 792) scale(3.77667)"/><circle cx="3" cy="3" r="3" transform="translate(726 792) scale(3.77667)"/><circle cx="3" cy="3" r="3" transform="translate(748 792) scale(3.77667)"/><circle cx="3" cy="3" r="3" transform="translate(792 792) scale(3.77667)"/><circle cx="3" cy="3" r="3" transform="translate(836 792) scale(3.77667)"/><circle cx="3" cy="3" r="3" transform="translate(880 792) scale(3.77667)"/><circle cx="3" cy="3" r="3" transform="translate(242 814) scale(3.77667)"/><circle cx="3" cy="3" r="3" transform="translate(264 814) scale(3.77667)"/><circle cx="3" cy="3" r="3" transform="translate(308 814) scale(3.77667)"/><circle cx="3" cy="3" r="3" transform="translate(352 814) scale(3.77667)"/><circle cx="3" cy="3" r="3" transform="translate(396 814) scale(3.77667)"/><circle cx="3" cy="3" r="3" transform="translate(418 814) scale(3.77667)"/><circle cx="3" cy="3" r="3" transform="translate(484 814) scale(3.77667)"/><circle cx="3" cy="3" r="3" transform="translate(506 814) scale(3.77667)"/><circle cx="3" cy="3" r="3" transform="translate(528 814) scale(3.77667)"/><circle cx="3" cy="3" r="3" transform="translate(572 814) scale(3.77667)"/><circle cx="3" cy="3" r="3" transform="translate(616 814) scale(3.77667)"/><circle cx="3" cy="3" r="3" transform="translate(660 814) scale(3.77667)"/><circle cx="3" cy="3" r="3" transform="translate(704 814) scale(3.77667)"/><circle cx="3" cy="3" r="3" transform="translate(726 814) scale(3.77667)"/><circle cx="3" cy="3" r="3" transform="translate(748 814) scale(3.77667)"/><circle cx="3" cy="3" r="3" transform="translate(836 814) scale(3.77667)"/><circle cx="3" cy="3" r="3" transform="translate(858 814) scale(3.77667)"/><circle cx="3" cy="3" r="3" transform="translate(924 814) scale(3.77667)"/><circle cx="3" cy="3" r="3" transform="translate(220 836) scale(3.77667)"/><circle cx="3" cy="3" r="3" transform="translate(242 836) scale(3.77667)"/><circle cx="3" cy="3" r="3" transform="translate(286 836) scale(3.77667)"/><circle cx="3" cy="3" r="3" transform="translate(308 836) scale(3.77667)"/><circle cx="3" cy="3" r="3" transform="translate(330 836) scale(3.77667)"/><circle cx="3" cy="3" r="3" transform="translate(374 836) scale(3.77667)"/><circle cx="3" cy="3" r="3" transform="translate(396 836) scale(3.77667)"/><circle cx="3" cy="3" r="3" transform="translate(440 836) scale(3.77667)"/><circle cx="3" cy="3" r="3" transform="translate(484 836) scale(3.77667)"/><circle cx="3" cy="3" r="3" transform="translate(572 836) scale(3.77667)"/><circle cx="3" cy="3" r="3" transform="translate(594 836) scale(3.77667)"/><circle cx="3" cy="3" r="3" transform="translate(616 836) scale(3.77667)"/><circle cx="3" cy="3" r="3" transform="translate(704 836) scale(3.77667)"/><circle cx="3" cy="3" r="3" transform="translate(748 836) scale(3.77667)"/><circle cx="3" cy="3" r="3" transform="translate(770 836) scale(3.77667)"/><circle cx="3" cy="3" r="3" transform="translate(792 836) scale(3.77667)"/><circle cx="3" cy="3" r="3" transform="translate(814 836) scale(3.77667)"/><circle cx="3" cy="3" r="3" transform="translate(836 836) scale(3.77667)"/><circle cx="3" cy="3" r="3" transform="translate(858 836) scale(3.77667)"/><circle cx="3" cy="3" r="3" transform="translate(880 836) scale(3.77667)"/><circle cx="3" cy="3" r="3" transform="translate(924 836) scale(3.77667)"/><circle cx="3" cy="3" r="3" transform="translate(220 858) scale(3.77667)"/><circle cx="3" cy="3" r="3" transform="translate(286 858) scale(3.77667)"/><circle cx="3" cy="3" r="3" transform="translate(308 858) scale(3.77667)"/><circle cx="3" cy="3" r="3" transform="translate(330 858) scale(3.77667)"/><circle cx="3" cy="3" r="3" transform="translate(374 858) scale(3.77667)"/><circle cx="3" cy="3" r="3" transform="translate(396 858) scale(3.77667)"/><circle cx="3" cy="3" r="3" transform="translate(440 858) scale(3.77667)"/><circle cx="3" cy="3" r="3" transform="translate(506 858) scale(3.77667)"/><circle cx="3" cy="3" r="3" transform="translate(550 858) scale(3.77667)"/><circle cx="3" cy="3" r="3" transform="translate(572 858) scale(3.77667)"/><circle cx="3" cy="3" r="3" transform="translate(616 858) scale(3.77667)"/><circle cx="3" cy="3" r="3" transform="translate(660 858) scale(3.77667)"/><circle cx="3" cy="3" r="3" transform="translate(682 858) scale(3.77667)"/><circle cx="3" cy="3" r="3" transform="translate(704 858) scale(3.77667)"/><circle cx="3" cy="3" r="3" transform="translate(770 858) scale(3.77667)"/><circle cx="3" cy="3" r="3" transform="translate(814 858) scale(3.77667)"/><circle cx="3" cy="3" r="3" transform="translate(924 858) scale(3.77667)"/><circle cx="3" cy="3" r="3" transform="translate(220 880) scale(3.77667)"/><circle cx="3" cy="3" r="3" transform="translate(242 880) scale(3.77667)"/><circle cx="3" cy="3" r="3" transform="translate(264 880) scale(3.77667)"/><circle cx="3" cy="3" r="3" transform="translate(396 880) scale(3.77667)"/><circle cx="3" cy="3" r="3" transform="translate(418 880) scale(3.77667)"/><circle cx="3" cy="3" r="3" transform="translate(462 880) scale(3.77667)"/><circle cx="3" cy="3" r="3" transform="translate(506 880) scale(3.77667)"/><circle cx="3" cy="3" r="3" transform="translate(572 880) scale(3.77667)"/><circle cx="3" cy="3" r="3" transform="translate(594 880) scale(3.77667)"/><circle cx="3" cy="3" r="3" transform="translate(638 880) scale(3.77667)"/><circle cx="3" cy="3" r="3" transform="translate(660 880) scale(3.77667)"/><circle cx="3" cy="3" r="3" transform="translate(704 880) scale(3.77667)"/><circle cx="3" cy="3" r="3" transform="translate(726 880) scale(3.77667)"/><circle cx="3" cy="3" r="3" transform="translate(748 880) scale(3.77667)"/><circle cx="3" cy="3" r="3" transform="translate(770 880) scale(3.77667)"/><circle cx="3" cy="3" r="3" transform="translate(792 880) scale(3.77667)"/><circle cx="3" cy="3" r="3" transform="translate(814 880) scale(3.77667)"/><circle cx="3" cy="3" r="3" transform="translate(836 880) scale(3.77667)"/><circle cx="3" cy="3" r="3" transform="translate(858 880) scale(3.77667)"/><circle cx="3" cy="3" r="3" transform="translate(880 880) scale(3.77667)"/><circle cx="3" cy="3" r="3" transform="translate(902 880) scale(3.77667)"/><circle cx="3" cy="3" r="3" transform="translate(242 902) scale(3.77667)"/><circle cx="3" cy="3" r="3" transform="translate(264 902) scale(3.77667)"/><circle cx="3" cy="3" r="3" transform="translate(330 902) scale(3.77667)"/><circle cx="3" cy="3" r="3" transform="translate(374 902) scale(3.77667)"/><circle cx="3" cy="3" r="3" transform="translate(396 902) scale(3.77667)"/><circle cx="3" cy="3" r="3" transform="translate(462 902) scale(3.77667)"/><circle cx="3" cy="3" r="3" transform="translate(484 902) scale(3.77667)"/><circle cx="3" cy="3" r="3" transform="translate(528 902) scale(3.77667)"/><circle cx="3" cy="3" r="3" transform="translate(572 902) scale(3.77667)"/><circle cx="3" cy="3" r="3" transform="translate(638 902) scale(3.77667)"/><circle cx="3" cy="3" r="3" transform="translate(748 902) scale(3.77667)"/><circle cx="3" cy="3" r="3" transform="translate(836 902) scale(3.77667)"/><circle cx="3" cy="3" r="3" transform="translate(858 902) scale(3.77667)"/><circle cx="3" cy="3" r="3" transform="translate(902 902) scale(3.77667)"/><circle cx="3" cy="3" r="3" transform="translate(264 924) scale(3.77667)"/><circle cx="3" cy="3" r="3" transform="translate(286 924) scale(3.77667)"/><circle cx="3" cy="3" r="3" transform="translate(352 924) scale(3.77667)"/><circle cx="3" cy="3" r="3" transform="translate(572 924) scale(3.77667)"/><circle cx="3" cy="3" r="3" transform="translate(594 924) scale(3.77667)"/><circle cx="3" cy="3" r="3" transform="translate(616 924) scale(3.77667)"/><circle cx="3" cy="3" r="3" transform="translate(660 924) scale(3.77667)"/><circle cx="3" cy="3" r="3" transform="translate(682 924) scale(3.77667)"/><circle cx="3" cy="3" r="3" transform="translate(726 924) scale(3.77667)"/><circle cx="3" cy="3" r="3" transform="translate(770 924) scale(3.77667)"/><circle cx="3" cy="3" r="3" transform="translate(814 924) scale(3.77667)"/><circle cx="3" cy="3" r="3" transform="translate(836 924) scale(3.77667)"/><circle cx="3" cy="3" r="3" transform="translate(880 924) scale(3.77667)"/></g><path d="M44 44v105.6C44 176 66 198 92.4 198h56.1c27.5 0 49.5-22 49.5-48.4V92.4C198 66 176 44 149.6 44H44zm101.2 132H96.8C80.3 176 66 161.7 66 145.2V66h79.2c16.5 0 30.8 14.3 30.8 30.8v48.4c0 16.5-14.3 30.8-30.8 30.8zM946 44H840.4C814 44 792 66 792 92.4v56.1c0 27.5 22 49.5 48.4 49.5h57.2c26.4 0 48.4-22 48.4-48.4V44zM814 145.2V96.8c0-16.5 14.3-30.8 30.8-30.8H924v79.2c0 16.5-14.3 30.8-30.8 30.8h-48.4c-16.5 0-30.8-14.3-30.8-30.8zM44 946h105.6c26.4 0 48.4-22 48.4-48.4v-56.1c0-27.5-22-49.5-48.4-49.5H92.4C66 792 44 814 44 840.4V946zm132-101.2v48.4c0 16.5-14.3 30.8-30.8 30.8H66v-79.2c0-16.5 14.3-30.8 30.8-30.8h48.4c16.5 0 30.8 14.3 30.8 30.8z" fill="#000"/><path d="M154 106.7v29.7c0 8.8-8.8 17.6-18.7 17.6h-28.6c-11 0-18.7-7.7-18.7-18.7v-28.6c0-9.9 8.8-18.7 18.7-18.7h29.7c9.9 0 17.6 7.7 17.6 18.7zm748 0v29.7c0 8.8-8.8 17.6-18.7 17.6h-28.6c-11 0-18.7-7.7-18.7-18.7v-28.6c0-9.9 8.8-18.7 18.7-18.7h29.7c9.9 0 17.6 7.7 17.6 18.7zm-748 748v29.7c0 8.8-8.8 17.6-18.7 17.6h-28.6c-11 0-18.7-7.7-18.7-18.7v-28.6c0-9.9 8.8-18.7 18.7-18.7h29.7c9.9 0 17.6 7.7 17.6 18.7z" fill="#000"/></svg>